<svg width="217" height="263" viewBox="0 0 217 263" fill="none" xmlns="http://www.w3.org/2000/svg">
<rect width="217" height="263" rx="7" fill="#36393F"/>
<rect x="10" y="9" width="167" height="20" rx="4" fill="#27292D"/>
<path d="M22.0057 13.8636L19.1932 24.3125H18.2727L21.0852 13.8636H22.0057ZM25.8569 23.1364C25.2433 23.1364 24.7148 22.9915 24.2717 22.7017C23.8285 22.4119 23.4876 22.0128 23.2489 21.5043C23.0103 20.9957 22.891 20.4148 22.891 19.7614C22.891 19.0966 23.0131 18.5099 23.2575 18.0014C23.5046 17.4901 23.8484 17.0909 24.2887 16.804C24.7319 16.5142 25.2489 16.3693 25.8398 16.3693C26.3001 16.3693 26.7148 16.4545 27.0842 16.625C27.4535 16.7955 27.756 17.0341 27.9918 17.3409C28.2276 17.6477 28.3739 18.0057 28.4308 18.4148H27.4251C27.3484 18.1165 27.1779 17.8523 26.9137 17.6222C26.6523 17.3892 26.3001 17.2727 25.8569 17.2727C25.4648 17.2727 25.1211 17.375 24.8256 17.5795C24.533 17.7812 24.3043 18.0668 24.1396 18.4361C23.9776 18.8026 23.8967 19.233 23.8967 19.7273C23.8967 20.233 23.9762 20.6733 24.1353 21.0483C24.2972 21.4233 24.5245 21.7145 24.8171 21.9219C25.1126 22.1293 25.4592 22.233 25.8569 22.233C26.1183 22.233 26.3555 22.1875 26.5685 22.0966C26.7816 22.0057 26.962 21.875 27.1097 21.7045C27.2575 21.5341 27.3626 21.3295 27.4251 21.0909H28.4308C28.3739 21.4773 28.2333 21.8253 28.0089 22.1349C27.7873 22.4418 27.4933 22.6861 27.1268 22.8679C26.7631 23.0469 26.3398 23.1364 25.8569 23.1364ZM30.9066 14.2727V23H29.9009V14.2727H30.9066ZM35.4929 23.1364C34.8622 23.1364 34.3182 22.9972 33.8608 22.7188C33.4062 22.4375 33.0554 22.0455 32.8082 21.5426C32.5639 21.0369 32.4418 20.4489 32.4418 19.7784C32.4418 19.108 32.5639 18.517 32.8082 18.0057C33.0554 17.4915 33.3991 17.0909 33.8395 16.804C34.2827 16.5142 34.7997 16.3693 35.3906 16.3693C35.7315 16.3693 36.0682 16.4261 36.4006 16.5398C36.733 16.6534 37.0355 16.8381 37.3082 17.0938C37.581 17.3466 37.7983 17.6818 37.9602 18.0994C38.1222 18.517 38.2031 19.0312 38.2031 19.642V20.0682H33.1577V19.1989H37.1804C37.1804 18.8295 37.1065 18.5 36.9588 18.2102C36.8139 17.9205 36.6065 17.6918 36.3366 17.5241C36.0696 17.3565 35.7543 17.2727 35.3906 17.2727C34.9901 17.2727 34.6435 17.3722 34.3509 17.571C34.0611 17.767 33.8381 18.0227 33.6818 18.3381C33.5256 18.6534 33.4474 18.9915 33.4474 19.3523V19.9318C33.4474 20.4261 33.5327 20.8452 33.7031 21.1889C33.8764 21.5298 34.1165 21.7898 34.4233 21.9688C34.7301 22.1449 35.0866 22.233 35.4929 22.233C35.7571 22.233 35.9957 22.196 36.2088 22.1222C36.4247 22.0455 36.6108 21.9318 36.767 21.7812C36.9233 21.6278 37.044 21.4375 37.1293 21.2102L38.1009 21.483C37.9986 21.8125 37.8267 22.1023 37.5852 22.3523C37.3438 22.5994 37.0455 22.7926 36.6903 22.9318C36.3352 23.0682 35.9361 23.1364 35.4929 23.1364ZM41.6591 23.1534C41.2443 23.1534 40.8679 23.0753 40.5298 22.919C40.1918 22.7599 39.9233 22.5312 39.7244 22.233C39.5256 21.9318 39.4261 21.5682 39.4261 21.142C39.4261 20.767 39.5 20.4631 39.6477 20.2301C39.7955 19.9943 39.9929 19.8097 40.2401 19.6761C40.4872 19.5426 40.7599 19.4432 41.0582 19.3778C41.3594 19.3097 41.6619 19.2557 41.9659 19.2159C42.3636 19.1648 42.6861 19.1264 42.9332 19.1009C43.1832 19.0724 43.3651 19.0256 43.4787 18.9602C43.5952 18.8949 43.6534 18.7812 43.6534 18.6193V18.5852C43.6534 18.1648 43.5384 17.8381 43.3082 17.6051C43.081 17.3722 42.7358 17.2557 42.2727 17.2557C41.7926 17.2557 41.4162 17.3608 41.1435 17.571C40.8707 17.7812 40.679 18.0057 40.5682 18.2443L39.6136 17.9034C39.7841 17.5057 40.0114 17.196 40.2955 16.9744C40.5824 16.75 40.8949 16.5937 41.233 16.5057C41.5739 16.4148 41.9091 16.3693 42.2386 16.3693C42.4489 16.3693 42.6903 16.3949 42.9631 16.446C43.2386 16.4943 43.5043 16.5952 43.7599 16.7486C44.0185 16.902 44.233 17.1335 44.4034 17.4432C44.5739 17.7528 44.6591 18.1676 44.6591 18.6875V23H43.6534V22.1136H43.6023C43.5341 22.2557 43.4205 22.4077 43.2614 22.5696C43.1023 22.7315 42.8906 22.8693 42.6264 22.983C42.3622 23.0966 42.0398 23.1534 41.6591 23.1534ZM41.8125 22.25C42.2102 22.25 42.5455 22.1719 42.8182 22.0156C43.0938 21.8594 43.3011 21.6577 43.4403 21.4105C43.5824 21.1634 43.6534 20.9034 43.6534 20.6307V19.7102C43.6108 19.7614 43.517 19.8082 43.3722 19.8509C43.2301 19.8906 43.0653 19.9261 42.8778 19.9574C42.6932 19.9858 42.5128 20.0114 42.3366 20.0341C42.1634 20.054 42.0227 20.071 41.9148 20.0852C41.6534 20.1193 41.4091 20.1747 41.1818 20.2514C40.9574 20.3253 40.7756 20.4375 40.6364 20.5881C40.5 20.7358 40.4318 20.9375 40.4318 21.1932C40.4318 21.5426 40.5611 21.8068 40.8196 21.9858C41.081 22.1619 41.4119 22.25 41.8125 22.25ZM46.4947 23V16.4545H47.4663V17.4432H47.5344C47.6538 17.1193 47.8697 16.8565 48.1822 16.6548C48.4947 16.4531 48.8469 16.3523 49.239 16.3523C49.3129 16.3523 49.4052 16.3537 49.516 16.3565C49.6268 16.3594 49.7106 16.3636 49.7674 16.3693V17.392C49.7333 17.3835 49.6552 17.3707 49.533 17.3537C49.4137 17.3338 49.2873 17.3239 49.1538 17.3239C48.8356 17.3239 48.5515 17.3906 48.3015 17.5241C48.0543 17.6548 47.8583 17.8366 47.7134 18.0696C47.5714 18.2997 47.5004 18.5625 47.5004 18.858V23H46.4947Z" fill="white"/>
<rect x="57" y="12" width="52" height="13" rx="2" fill="#323335"/>
<path d="M99.6477 16.1818V22H98.9432V16.9205H98.9091L97.4886 17.8636V17.1477L98.9432 16.1818H99.6477ZM101.185 20.8068V20.2273L103.741 16.1818H104.162V17.0795H103.878L101.946 20.1364V20.1818H105.389V20.8068H101.185ZM103.923 22V20.6307V20.3608V16.1818H104.594V22H103.923Z" fill="white" fill-opacity="0.46"/>
<path d="M57 14C57 12.8954 57.8954 12 59 12H94V25H59C57.8954 25 57 24.1046 57 23V14Z" fill="#18191C"/>
<path d="M61.8977 22.1023C61.6212 22.1023 61.3703 22.0502 61.1449 21.946C60.9195 21.84 60.7405 21.6875 60.608 21.4886C60.4754 21.2879 60.4091 21.0455 60.4091 20.7614C60.4091 20.5114 60.4583 20.3087 60.5568 20.1534C60.6553 19.9962 60.7869 19.8731 60.9517 19.7841C61.1165 19.6951 61.2983 19.6288 61.4972 19.5852C61.6979 19.5398 61.8996 19.5038 62.1023 19.4773C62.3674 19.4432 62.5824 19.4176 62.7472 19.4006C62.9138 19.3816 63.035 19.3504 63.1108 19.3068C63.1884 19.2633 63.2273 19.1875 63.2273 19.0795V19.0568C63.2273 18.7765 63.1506 18.5587 62.9972 18.4034C62.8456 18.2481 62.6155 18.1705 62.3068 18.1705C61.9867 18.1705 61.7358 18.2405 61.554 18.3807C61.3722 18.5208 61.2443 18.6705 61.1705 18.8295L60.5341 18.6023C60.6477 18.3371 60.7992 18.1307 60.9886 17.983C61.1799 17.8333 61.3883 17.7292 61.6136 17.6705C61.8409 17.6098 62.0644 17.5795 62.2841 17.5795C62.4242 17.5795 62.5852 17.5966 62.767 17.6307C62.9508 17.6629 63.1278 17.7301 63.2983 17.8324C63.4706 17.9347 63.6136 18.089 63.7273 18.2955C63.8409 18.5019 63.8977 18.7784 63.8977 19.125V22H63.2273V21.4091H63.1932C63.1477 21.5038 63.072 21.6051 62.9659 21.7131C62.8598 21.821 62.7188 21.9129 62.5426 21.9886C62.3665 22.0644 62.1515 22.1023 61.8977 22.1023ZM62 21.5C62.2652 21.5 62.4886 21.4479 62.6705 21.3438C62.8542 21.2396 62.9924 21.1051 63.0852 20.9403C63.1799 20.7756 63.2273 20.6023 63.2273 20.4205V19.8068C63.1989 19.8409 63.1364 19.8722 63.0398 19.9006C62.9451 19.9271 62.8352 19.9508 62.7102 19.9716C62.5871 19.9905 62.4669 20.0076 62.3494 20.0227C62.2339 20.036 62.1402 20.0473 62.0682 20.0568C61.8939 20.0795 61.7311 20.1165 61.5795 20.1676C61.4299 20.2169 61.3087 20.2917 61.2159 20.392C61.125 20.4905 61.0795 20.625 61.0795 20.7955C61.0795 21.0284 61.1657 21.2045 61.3381 21.3239C61.5123 21.4413 61.733 21.5 62 21.5ZM65.1214 22V17.6364H65.7692V18.3182H65.826C65.9169 18.0852 66.0637 17.9044 66.2663 17.7756C66.469 17.6449 66.7124 17.5795 66.9964 17.5795C67.2843 17.5795 67.5239 17.6449 67.7152 17.7756C67.9084 17.9044 68.0589 18.0852 68.1669 18.3182H68.2124C68.3241 18.0928 68.4917 17.9138 68.7152 17.7812C68.9387 17.6468 69.2067 17.5795 69.5192 17.5795C69.9093 17.5795 70.2285 17.7017 70.4766 17.946C70.7247 18.1884 70.8487 18.5663 70.8487 19.0795V22H70.1783V19.0795C70.1783 18.7576 70.0902 18.5275 69.9141 18.3892C69.7379 18.2509 69.5305 18.1818 69.2919 18.1818C68.9851 18.1818 68.7474 18.2746 68.5788 18.4602C68.4103 18.6439 68.326 18.8769 68.326 19.1591V22H67.6442V19.0114C67.6442 18.7633 67.5637 18.5634 67.4027 18.4119C67.2417 18.2585 67.0343 18.1818 66.7805 18.1818C66.6063 18.1818 66.4434 18.2282 66.2919 18.321C66.1423 18.4138 66.0211 18.5426 65.9283 18.7074C65.8374 18.8703 65.7919 19.0587 65.7919 19.2727V22H65.1214ZM73.8473 22.0909C73.4534 22.0909 73.1077 21.9972 72.8104 21.8097C72.5149 21.6222 72.2839 21.3598 72.1172 21.0227C71.9524 20.6856 71.87 20.2917 71.87 19.8409C71.87 19.3864 71.9524 18.9896 72.1172 18.6506C72.2839 18.3116 72.5149 18.0483 72.8104 17.8608C73.1077 17.6733 73.4534 17.5795 73.8473 17.5795C74.2412 17.5795 74.5859 17.6733 74.8814 17.8608C75.1787 18.0483 75.4098 18.3116 75.5746 18.6506C75.7412 18.9896 75.8246 19.3864 75.8246 19.8409C75.8246 20.2917 75.7412 20.6856 75.5746 21.0227C75.4098 21.3598 75.1787 21.6222 74.8814 21.8097C74.5859 21.9972 74.2412 22.0909 73.8473 22.0909ZM73.8473 21.4886C74.1465 21.4886 74.3928 21.4119 74.5859 21.2585C74.7791 21.1051 74.9221 20.9034 75.0149 20.6534C75.1077 20.4034 75.1541 20.1326 75.1541 19.8409C75.1541 19.5492 75.1077 19.2775 75.0149 19.0256C74.9221 18.7737 74.7791 18.5701 74.5859 18.4148C74.3928 18.2595 74.1465 18.1818 73.8473 18.1818C73.5481 18.1818 73.3018 18.2595 73.1087 18.4148C72.9155 18.5701 72.7725 18.7737 72.6797 19.0256C72.5869 19.2775 72.5405 19.5492 72.5405 19.8409C72.5405 20.1326 72.5869 20.4034 72.6797 20.6534C72.7725 20.9034 72.9155 21.1051 73.1087 21.2585C73.3018 21.4119 73.5481 21.4886 73.8473 21.4886ZM79.598 20.2159V17.6364H80.2685V22H79.598V21.2614H79.5526C79.4503 21.483 79.2912 21.6714 79.0753 21.8267C78.8594 21.9801 78.5866 22.0568 78.2571 22.0568C77.9844 22.0568 77.742 21.9972 77.5298 21.8778C77.3177 21.7566 77.151 21.5748 77.0298 21.3324C76.9086 21.0881 76.848 20.7803 76.848 20.4091V17.6364H77.5185V20.3636C77.5185 20.6818 77.6075 20.9356 77.7855 21.125C77.9654 21.3144 78.1946 21.4091 78.473 21.4091C78.6397 21.4091 78.8092 21.3665 78.9815 21.2812C79.1558 21.196 79.3016 21.0653 79.419 20.8892C79.5384 20.7131 79.598 20.4886 79.598 20.2159ZM82.1669 19.375V22H81.4964V17.6364H82.1442V18.3182H82.201C82.3033 18.0966 82.4586 17.9186 82.6669 17.7841C82.8752 17.6477 83.1442 17.5795 83.4737 17.5795C83.7692 17.5795 84.0277 17.6402 84.2493 17.7614C84.4709 17.8807 84.6432 18.0625 84.7663 18.3068C84.8894 18.5492 84.951 18.8561 84.951 19.2273V22H84.2805V19.2727C84.2805 18.9299 84.1915 18.6629 84.0135 18.4716C83.8355 18.2784 83.5911 18.1818 83.2805 18.1818C83.0665 18.1818 82.8752 18.2282 82.7067 18.321C82.54 18.4138 82.4084 18.5492 82.3118 18.7273C82.2152 18.9053 82.1669 19.1212 82.1669 19.375ZM88.0739 17.6364V18.2045H85.8125V17.6364H88.0739ZM86.4716 16.5909H87.142V20.75C87.142 20.9394 87.1695 21.0814 87.2244 21.1761C87.2813 21.2689 87.3532 21.3314 87.4403 21.3636C87.5294 21.3939 87.6231 21.4091 87.7216 21.4091C87.7955 21.4091 87.8561 21.4053 87.9034 21.3977C87.9508 21.3883 87.9886 21.3807 88.017 21.375L88.1534 21.9773C88.108 21.9943 88.0445 22.0114 87.9631 22.0284C87.8816 22.0473 87.7784 22.0568 87.6534 22.0568C87.464 22.0568 87.2784 22.0161 87.0966 21.9347C86.9167 21.8532 86.767 21.7292 86.6477 21.5625C86.5303 21.3958 86.4716 21.1856 86.4716 20.9318V16.5909ZM89.571 22.0455C89.4309 22.0455 89.3106 21.9953 89.2102 21.8949C89.1098 21.7945 89.0597 21.6742 89.0597 21.5341C89.0597 21.3939 89.1098 21.2737 89.2102 21.1733C89.3106 21.0729 89.4309 21.0227 89.571 21.0227C89.7112 21.0227 89.8314 21.0729 89.9318 21.1733C90.0322 21.2737 90.0824 21.3939 90.0824 21.5341C90.0824 21.6269 90.0587 21.7121 90.0114 21.7898C89.9659 21.8674 89.9044 21.9299 89.8267 21.9773C89.7509 22.0227 89.6657 22.0455 89.571 22.0455ZM89.571 18.8068C89.4309 18.8068 89.3106 18.7566 89.2102 18.6562C89.1098 18.5559 89.0597 18.4356 89.0597 18.2955C89.0597 18.1553 89.1098 18.035 89.2102 17.9347C89.3106 17.8343 89.4309 17.7841 89.571 17.7841C89.7112 17.7841 89.8314 17.8343 89.9318 17.9347C90.0322 18.035 90.0824 18.1553 90.0824 18.2955C90.0824 18.3883 90.0587 18.4735 90.0114 18.5511C89.9659 18.6288 89.9044 18.6913 89.8267 18.7386C89.7509 18.7841 89.6657 18.8068 89.571 18.8068Z" fill="white" fill-opacity="0.46"/>
<rect x="117" y="12" width="48" height="13" rx="2" fill="#323335"/>
<path d="M144.705 22V16.1818H145.375V18.3295H145.432C145.481 18.2538 145.549 18.1572 145.636 18.0398C145.725 17.9205 145.852 17.8144 146.017 17.7216C146.184 17.6269 146.409 17.5795 146.693 17.5795C147.061 17.5795 147.384 17.6714 147.665 17.8551C147.945 18.0388 148.164 18.2992 148.321 18.6364C148.478 18.9735 148.557 19.3712 148.557 19.8295C148.557 20.2917 148.478 20.6922 148.321 21.0312C148.164 21.3684 147.946 21.6297 147.668 21.8153C147.389 21.9991 147.068 22.0909 146.705 22.0909C146.424 22.0909 146.2 22.0445 146.031 21.9517C145.863 21.857 145.733 21.75 145.642 21.6307C145.551 21.5095 145.481 21.4091 145.432 21.3295H145.352V22H144.705ZM145.364 19.8182C145.364 20.1477 145.412 20.4384 145.509 20.6903C145.605 20.9403 145.746 21.1364 145.932 21.2784C146.117 21.4186 146.345 21.4886 146.614 21.4886C146.894 21.4886 147.128 21.4148 147.315 21.267C147.505 21.1174 147.647 20.9167 147.741 20.6648C147.838 20.411 147.886 20.1288 147.886 19.8182C147.886 19.5114 147.839 19.2348 147.744 18.9886C147.652 18.7405 147.51 18.5445 147.321 18.4006C147.134 18.2547 146.898 18.1818 146.614 18.1818C146.341 18.1818 146.112 18.2509 145.926 18.3892C145.741 18.5256 145.6 18.7169 145.506 18.9631C145.411 19.2074 145.364 19.4924 145.364 19.8182ZM151.355 22.0909C150.961 22.0909 150.616 21.9972 150.318 21.8097C150.023 21.6222 149.792 21.3598 149.625 21.0227C149.46 20.6856 149.378 20.2917 149.378 19.8409C149.378 19.3864 149.46 18.9896 149.625 18.6506C149.792 18.3116 150.023 18.0483 150.318 17.8608C150.616 17.6733 150.961 17.5795 151.355 17.5795C151.749 17.5795 152.094 17.6733 152.389 17.8608C152.687 18.0483 152.918 18.3116 153.082 18.6506C153.249 18.9896 153.332 19.3864 153.332 19.8409C153.332 20.2917 153.249 20.6856 153.082 21.0227C152.918 21.3598 152.687 21.6222 152.389 21.8097C152.094 21.9972 151.749 22.0909 151.355 22.0909ZM151.355 21.4886C151.654 21.4886 151.901 21.4119 152.094 21.2585C152.287 21.1051 152.43 20.9034 152.523 20.6534C152.616 20.4034 152.662 20.1326 152.662 19.8409C152.662 19.5492 152.616 19.2775 152.523 19.0256C152.43 18.7737 152.287 18.5701 152.094 18.4148C151.901 18.2595 151.654 18.1818 151.355 18.1818C151.056 18.1818 150.81 18.2595 150.616 18.4148C150.423 18.5701 150.28 18.7737 150.188 19.0256C150.095 19.2775 150.048 19.5492 150.048 19.8409C150.048 20.1326 150.095 20.4034 150.188 20.6534C150.28 20.9034 150.423 21.1051 150.616 21.2585C150.81 21.4119 151.056 21.4886 151.355 21.4886ZM156.254 17.6364V18.2045H153.992V17.6364H156.254ZM154.651 16.5909H155.322V20.75C155.322 20.9394 155.349 21.0814 155.404 21.1761C155.461 21.2689 155.533 21.3314 155.62 21.3636C155.709 21.3939 155.803 21.4091 155.901 21.4091C155.975 21.4091 156.036 21.4053 156.083 21.3977C156.13 21.3883 156.168 21.3807 156.197 21.375L156.333 21.9773C156.288 21.9943 156.224 22.0114 156.143 22.0284C156.061 22.0473 155.958 22.0568 155.833 22.0568C155.644 22.0568 155.458 22.0161 155.276 21.9347C155.096 21.8532 154.947 21.7292 154.827 21.5625C154.71 21.3958 154.651 21.1856 154.651 20.9318V16.5909ZM160.275 18.6136L159.673 18.7841C159.635 18.6837 159.579 18.5862 159.505 18.4915C159.433 18.3949 159.335 18.3153 159.21 18.2528C159.085 18.1903 158.924 18.1591 158.729 18.1591C158.462 18.1591 158.24 18.2206 158.062 18.3438C157.886 18.465 157.798 18.6193 157.798 18.8068C157.798 18.9735 157.858 19.1051 157.979 19.2017C158.101 19.2983 158.29 19.3788 158.548 19.4432L159.195 19.6023C159.585 19.697 159.876 19.8419 160.067 20.0369C160.259 20.2301 160.354 20.4792 160.354 20.7841C160.354 21.0341 160.282 21.2576 160.138 21.4545C159.996 21.6515 159.798 21.8068 159.542 21.9205C159.286 22.0341 158.989 22.0909 158.65 22.0909C158.205 22.0909 157.836 21.9943 157.545 21.8011C157.253 21.608 157.068 21.3258 156.991 20.9545L157.627 20.7955C157.688 21.0303 157.802 21.2064 157.971 21.3239C158.141 21.4413 158.364 21.5 158.638 21.5C158.951 21.5 159.199 21.4337 159.383 21.3011C159.568 21.1667 159.661 21.0057 159.661 20.8182C159.661 20.6667 159.608 20.5398 159.502 20.4375C159.396 20.3333 159.233 20.2557 159.013 20.2045L158.286 20.0341C157.887 19.9394 157.593 19.7926 157.406 19.5938C157.22 19.393 157.127 19.142 157.127 18.8409C157.127 18.5947 157.196 18.3769 157.335 18.1875C157.475 17.9981 157.665 17.8494 157.906 17.7415C158.148 17.6335 158.423 17.5795 158.729 17.5795C159.161 17.5795 159.5 17.6742 159.746 17.8636C159.995 18.053 160.171 18.303 160.275 18.6136Z" fill="white" fill-opacity="0.46"/>
<path d="M117 14C117 12.8954 117.895 12 119 12H141V25H119C117.895 25 117 24.1046 117 23V14Z" fill="#18191C"/>
<path d="M122.557 17.6364V18.2045H120.205V17.6364H122.557ZM120.909 22V17.0341C120.909 16.7841 120.968 16.5758 121.085 16.4091C121.203 16.2424 121.355 16.1174 121.543 16.0341C121.73 15.9508 121.928 15.9091 122.136 15.9091C122.301 15.9091 122.436 15.9223 122.54 15.9489C122.644 15.9754 122.722 16 122.773 16.0227L122.58 16.6023C122.545 16.5909 122.498 16.5767 122.438 16.5597C122.379 16.5426 122.301 16.5341 122.205 16.5341C121.983 16.5341 121.823 16.59 121.724 16.7017C121.628 16.8134 121.58 16.9773 121.58 17.1932V22H120.909ZM123.496 22V17.6364H124.167V22H123.496ZM123.837 16.9091C123.707 16.9091 123.594 16.8646 123.499 16.7756C123.406 16.6866 123.36 16.5795 123.36 16.4545C123.36 16.3295 123.406 16.2225 123.499 16.1335C123.594 16.0445 123.707 16 123.837 16C123.968 16 124.08 16.0445 124.173 16.1335C124.267 16.2225 124.315 16.3295 124.315 16.4545C124.315 16.5795 124.267 16.6866 124.173 16.7756C124.08 16.8646 123.968 16.9091 123.837 16.9091ZM126.065 16.1818V22H125.395V16.1818H126.065ZM129.191 17.6364V18.2045H126.93V17.6364H129.191ZM127.589 16.5909H128.259V20.75C128.259 20.9394 128.287 21.0814 128.342 21.1761C128.398 21.2689 128.47 21.3314 128.558 21.3636C128.647 21.3939 128.74 21.4091 128.839 21.4091C128.913 21.4091 128.973 21.4053 129.021 21.3977C129.068 21.3883 129.106 21.3807 129.134 21.375L129.271 21.9773C129.225 21.9943 129.162 22.0114 129.08 22.0284C128.999 22.0473 128.896 22.0568 128.771 22.0568C128.581 22.0568 128.396 22.0161 128.214 21.9347C128.034 21.8532 127.884 21.7292 127.765 21.5625C127.647 21.3958 127.589 21.1856 127.589 20.9318V16.5909ZM131.982 22.0909C131.562 22.0909 131.199 21.9981 130.894 21.8125C130.591 21.625 130.357 21.3636 130.192 21.0284C130.03 20.6913 129.948 20.2992 129.948 19.8523C129.948 19.4053 130.03 19.0114 130.192 18.6705C130.357 18.3277 130.586 18.0606 130.88 17.8693C131.175 17.6761 131.52 17.5795 131.914 17.5795C132.141 17.5795 132.366 17.6174 132.587 17.6932C132.809 17.7689 133.011 17.892 133.192 18.0625C133.374 18.2311 133.519 18.4545 133.627 18.733C133.735 19.0114 133.789 19.3542 133.789 19.7614V20.0455H130.425V19.4659H133.107C133.107 19.2197 133.058 19 132.96 18.8068C132.863 18.6136 132.725 18.4612 132.545 18.3494C132.367 18.2377 132.156 18.1818 131.914 18.1818C131.647 18.1818 131.416 18.2481 131.221 18.3807C131.028 18.5114 130.879 18.6818 130.775 18.892C130.671 19.1023 130.619 19.3277 130.619 19.5682V19.9545C130.619 20.2841 130.675 20.5634 130.789 20.7926C130.905 21.0199 131.065 21.1932 131.269 21.3125C131.474 21.4299 131.711 21.4886 131.982 21.4886C132.158 21.4886 132.317 21.464 132.46 21.4148C132.603 21.3636 132.728 21.2879 132.832 21.1875C132.936 21.0852 133.016 20.9583 133.073 20.8068L133.721 20.9886C133.653 21.2083 133.538 21.4015 133.377 21.5682C133.216 21.733 133.017 21.8617 132.781 21.9545C132.544 22.0455 132.278 22.0909 131.982 22.0909ZM134.809 22V17.6364H135.457V18.2955H135.502C135.582 18.0795 135.726 17.9044 135.934 17.7699C136.142 17.6354 136.377 17.5682 136.638 17.5682C136.688 17.5682 136.749 17.5691 136.823 17.571C136.897 17.5729 136.953 17.5758 136.991 17.5795V18.2614C136.968 18.2557 136.916 18.2472 136.835 18.2358C136.755 18.2225 136.671 18.2159 136.582 18.2159C136.37 18.2159 136.18 18.2604 136.013 18.3494C135.849 18.4366 135.718 18.5578 135.621 18.7131C135.527 18.8665 135.479 19.0417 135.479 19.2386V22H134.809ZM138.274 22.0455C138.134 22.0455 138.014 21.9953 137.913 21.8949C137.813 21.7945 137.763 21.6742 137.763 21.5341C137.763 21.3939 137.813 21.2737 137.913 21.1733C138.014 21.0729 138.134 21.0227 138.274 21.0227C138.414 21.0227 138.535 21.0729 138.635 21.1733C138.735 21.2737 138.786 21.3939 138.786 21.5341C138.786 21.6269 138.762 21.7121 138.714 21.7898C138.669 21.8674 138.607 21.9299 138.53 21.9773C138.454 22.0227 138.369 22.0455 138.274 22.0455ZM138.274 18.8068C138.134 18.8068 138.014 18.7566 137.913 18.6562C137.813 18.5559 137.763 18.4356 137.763 18.2955C137.763 18.1553 137.813 18.035 137.913 17.9347C138.014 17.8343 138.134 17.7841 138.274 17.7841C138.414 17.7841 138.535 17.8343 138.635 17.9347C138.735 18.035 138.786 18.1553 138.786 18.2955C138.786 18.3883 138.762 18.4735 138.714 18.5511C138.669 18.6288 138.607 18.6913 138.53 18.7386C138.454 18.7841 138.369 18.8068 138.274 18.8068Z" fill="white" fill-opacity="0.46"/>
<g opacity="0.2">
<rect x="25" y="86" width="30" height="30" rx="15" fill="#D9D9D9" fill-opacity="0.7"/>
<rect x="62" y="86" width="99" height="7" rx="3.5" fill="#D9D9D9"/>
<rect x="62" y="101" width="130" height="19" rx="4" fill="#D9D9D9" fill-opacity="0.6"/>
<rect x="25" y="172" width="30" height="30" rx="15" fill="#D9D9D9" fill-opacity="0.7"/>
<rect x="62" y="172" width="99" height="7" rx="3.5" fill="#D9D9D9"/>
<rect x="62" y="187" width="130" height="9" rx="4" fill="#D9D9D9" fill-opacity="0.6"/>
<rect x="25" y="213" width="30" height="30" rx="15" fill="#D9D9D9" fill-opacity="0.7"/>
<rect x="62" y="213" width="99" height="7" rx="3.5" fill="#D9D9D9"/>
<rect x="62" y="228" width="130" height="9" rx="4" fill="#D9D9D9" fill-opacity="0.6"/>
<rect x="20" y="124" width="177" height="43" rx="10" fill="#E83F3F"/>
<rect x="25" y="131" width="30" height="30" rx="15" fill="#D9D9D9" fill-opacity="0.7"/>
<rect x="62" y="131" width="99" height="7" rx="3.5" fill="#D9D9D9"/>
<rect x="62" y="146" width="130" height="9" rx="4" fill="#D9D9D9" fill-opacity="0.6"/>
<rect x="20" y="39" width="177" height="43" rx="10" fill="#E83F3F"/>
<rect x="25" y="45" width="30" height="30" rx="15" fill="#D9D9D9" fill-opacity="0.7"/>
<rect x="62" y="45" width="99" height="7" rx="3.5" fill="#D9D9D9"/>
<rect x="62" y="60" width="130" height="9" rx="4" fill="#D9D9D9" fill-opacity="0.6"/>
<rect x="165" y="130" width="22" height="10" rx="3" fill="#5865F2"/>
<path d="M168.705 138V132.182H170.739C171.144 132.182 171.478 132.252 171.741 132.392C172.005 132.53 172.201 132.717 172.33 132.952C172.458 133.185 172.523 133.443 172.523 133.727C172.523 133.977 172.478 134.184 172.389 134.347C172.302 134.509 172.187 134.638 172.043 134.733C171.901 134.828 171.746 134.898 171.58 134.943V135C171.758 135.011 171.937 135.074 172.116 135.188C172.296 135.301 172.447 135.464 172.568 135.676C172.689 135.888 172.75 136.148 172.75 136.455C172.75 136.746 172.684 137.009 172.551 137.241C172.419 137.474 172.209 137.659 171.923 137.795C171.637 137.932 171.265 138 170.807 138H168.705ZM169.409 137.375H170.807C171.267 137.375 171.594 137.286 171.787 137.108C171.982 136.928 172.08 136.71 172.08 136.455C172.08 136.258 172.029 136.076 171.929 135.909C171.829 135.741 171.686 135.606 171.5 135.506C171.314 135.403 171.095 135.352 170.841 135.352H169.409V137.375ZM169.409 134.739H170.716C170.928 134.739 171.119 134.697 171.29 134.614C171.462 134.53 171.598 134.413 171.699 134.261C171.801 134.11 171.852 133.932 171.852 133.727C171.852 133.472 171.763 133.255 171.585 133.077C171.407 132.897 171.125 132.807 170.739 132.807H169.409V134.739ZM178.817 135.091C178.817 135.705 178.706 136.235 178.484 136.682C178.263 137.129 177.959 137.473 177.572 137.716C177.186 137.958 176.745 138.08 176.249 138.08C175.752 138.08 175.311 137.958 174.925 137.716C174.538 137.473 174.234 137.129 174.013 136.682C173.791 136.235 173.68 135.705 173.68 135.091C173.68 134.477 173.791 133.947 174.013 133.5C174.234 133.053 174.538 132.708 174.925 132.466C175.311 132.223 175.752 132.102 176.249 132.102C176.745 132.102 177.186 132.223 177.572 132.466C177.959 132.708 178.263 133.053 178.484 133.5C178.706 133.947 178.817 134.477 178.817 135.091ZM178.135 135.091C178.135 134.587 178.051 134.162 177.882 133.815C177.715 133.469 177.489 133.206 177.203 133.028C176.919 132.85 176.601 132.761 176.249 132.761C175.896 132.761 175.577 132.85 175.291 133.028C175.007 133.206 174.781 133.469 174.612 133.815C174.446 134.162 174.362 134.587 174.362 135.091C174.362 135.595 174.446 136.02 174.612 136.366C174.781 136.713 175.007 136.975 175.291 137.153C175.577 137.331 175.896 137.42 176.249 137.42C176.601 137.42 176.919 137.331 177.203 137.153C177.489 136.975 177.715 136.713 177.882 136.366C178.051 136.02 178.135 135.595 178.135 135.091ZM179.441 132.807V132.182H183.805V132.807H181.975V138H181.271V132.807H179.441Z" fill="white"/>
<rect x="165" y="43" width="22" height="10" rx="3" fill="#5865F2"/>
<path d="M168.705 51V45.1818H170.739C171.144 45.1818 171.478 45.2519 171.741 45.392C172.005 45.5303 172.201 45.7169 172.33 45.9517C172.458 46.1847 172.523 46.4432 172.523 46.7273C172.523 46.9773 172.478 47.1837 172.389 47.3466C172.302 47.5095 172.187 47.6383 172.043 47.733C171.901 47.8277 171.746 47.8977 171.58 47.9432V48C171.758 48.0114 171.937 48.0739 172.116 48.1875C172.296 48.3011 172.447 48.464 172.568 48.6761C172.689 48.8883 172.75 49.1477 172.75 49.4545C172.75 49.7462 172.684 50.0085 172.551 50.2415C172.419 50.4744 172.209 50.6591 171.923 50.7955C171.637 50.9318 171.265 51 170.807 51H168.705ZM169.409 50.375H170.807C171.267 50.375 171.594 50.286 171.787 50.108C171.982 49.928 172.08 49.7102 172.08 49.4545C172.08 49.2576 172.029 49.0758 171.929 48.9091C171.829 48.7405 171.686 48.6061 171.5 48.5057C171.314 48.4034 171.095 48.3523 170.841 48.3523H169.409V50.375ZM169.409 47.7386H170.716C170.928 47.7386 171.119 47.697 171.29 47.6136C171.462 47.5303 171.598 47.4129 171.699 47.2614C171.801 47.1098 171.852 46.9318 171.852 46.7273C171.852 46.4716 171.763 46.2547 171.585 46.0767C171.407 45.8968 171.125 45.8068 170.739 45.8068H169.409V47.7386ZM178.817 48.0909C178.817 48.7045 178.706 49.2348 178.484 49.6818C178.263 50.1288 177.959 50.4735 177.572 50.7159C177.186 50.9583 176.745 51.0795 176.249 51.0795C175.752 51.0795 175.311 50.9583 174.925 50.7159C174.538 50.4735 174.234 50.1288 174.013 49.6818C173.791 49.2348 173.68 48.7045 173.68 48.0909C173.68 47.4773 173.791 46.947 174.013 46.5C174.234 46.053 174.538 45.7083 174.925 45.4659C175.311 45.2235 175.752 45.1023 176.249 45.1023C176.745 45.1023 177.186 45.2235 177.572 45.4659C177.959 45.7083 178.263 46.053 178.484 46.5C178.706 46.947 178.817 47.4773 178.817 48.0909ZM178.135 48.0909C178.135 47.5871 178.051 47.1619 177.882 46.8153C177.715 46.4688 177.489 46.2064 177.203 46.0284C176.919 45.8504 176.601 45.7614 176.249 45.7614C175.896 45.7614 175.577 45.8504 175.291 46.0284C175.007 46.2064 174.781 46.4688 174.612 46.8153C174.446 47.1619 174.362 47.5871 174.362 48.0909C174.362 48.5947 174.446 49.0199 174.612 49.3665C174.781 49.7131 175.007 49.9754 175.291 50.1534C175.577 50.3314 175.896 50.4205 176.249 50.4205C176.601 50.4205 176.919 50.3314 177.203 50.1534C177.489 49.9754 177.715 49.7131 177.882 49.3665C178.051 49.0199 178.135 48.5947 178.135 48.0909ZM179.441 45.8068V45.1818H183.805V45.8068H181.975V51H181.271V45.8068H179.441Z" fill="white"/>
</g>
</svg>
