<svg width="189" height="87" viewBox="0 0 189 87" fill="none" xmlns="http://www.w3.org/2000/svg">
<rect width="189" height="87" rx="7" fill="#36393F"/>
<rect x="6" y="5" width="167" height="20" rx="4" fill="#27292D"/>
<path d="M18.0057 9.86364L15.1932 20.3125H14.2727L17.0852 9.86364H18.0057ZM22.0444 12.4545V13.3068H18.6523V12.4545H22.0444ZM19.641 10.8864H20.6467V17.125C20.6467 17.4091 20.6879 17.6222 20.7702 17.7642C20.8555 17.9034 20.9634 17.9972 21.0941 18.0455C21.2276 18.0909 21.3683 18.1136 21.516 18.1136C21.6268 18.1136 21.7177 18.108 21.7887 18.0966C21.8597 18.0824 21.9165 18.071 21.9592 18.0625L22.1637 18.9659C22.0955 18.9915 22.0004 19.017 21.8782 19.0426C21.756 19.071 21.6012 19.0852 21.4137 19.0852C21.1296 19.0852 20.8512 19.0241 20.5785 18.902C20.3086 18.7798 20.0842 18.5938 19.9052 18.3438C19.729 18.0938 19.641 17.7784 19.641 17.3977V10.8864ZM23.5572 19V12.4545H24.5629V19H23.5572ZM24.0685 11.3636C23.8725 11.3636 23.7035 11.2969 23.5614 11.1634C23.4222 11.0298 23.3526 10.8693 23.3526 10.6818C23.3526 10.4943 23.4222 10.3338 23.5614 10.2003C23.7035 10.0668 23.8725 10 24.0685 10C24.2646 10 24.4322 10.0668 24.5714 10.2003C24.7134 10.3338 24.7844 10.4943 24.7844 10.6818C24.7844 10.8693 24.7134 11.0298 24.5714 11.1634C24.4322 11.2969 24.2646 11.3636 24.0685 11.3636ZM26.4048 19V12.4545H27.3764V13.4773H27.4616C27.598 13.1278 27.8182 12.8565 28.1222 12.6634C28.4261 12.4673 28.7912 12.3693 29.2173 12.3693C29.6491 12.3693 30.0085 12.4673 30.2955 12.6634C30.5852 12.8565 30.8111 13.1278 30.973 13.4773H31.0412C31.2088 13.1392 31.4602 12.8707 31.7955 12.6719C32.1307 12.4702 32.5327 12.3693 33.0014 12.3693C33.5866 12.3693 34.0653 12.5526 34.4375 12.919C34.8097 13.2827 34.9957 13.8494 34.9957 14.6193V19H33.9901V14.6193C33.9901 14.1364 33.858 13.7912 33.5938 13.5838C33.3295 13.3764 33.0185 13.2727 32.6605 13.2727C32.2003 13.2727 31.8438 13.4119 31.5909 13.6903C31.3381 13.9659 31.2116 14.3153 31.2116 14.7386V19H30.1889V14.517C30.1889 14.1449 30.0682 13.8452 29.8267 13.6179C29.5852 13.3878 29.2741 13.2727 28.8935 13.2727C28.6321 13.2727 28.3878 13.3423 28.1605 13.4815C27.9361 13.6207 27.7543 13.8139 27.6151 14.0611C27.4787 14.3054 27.4105 14.5881 27.4105 14.9091V19H26.4048ZM39.5788 19.1364C38.9482 19.1364 38.4041 18.9972 37.9467 18.7188C37.4922 18.4375 37.1413 18.0455 36.8942 17.5426C36.6499 17.0369 36.5277 16.4489 36.5277 15.7784C36.5277 15.108 36.6499 14.517 36.8942 14.0057C37.1413 13.4915 37.4851 13.0909 37.9254 12.804C38.3686 12.5142 38.8857 12.3693 39.4766 12.3693C39.8175 12.3693 40.1541 12.4261 40.4865 12.5398C40.8189 12.6534 41.1214 12.8381 41.3942 13.0938C41.6669 13.3466 41.8842 13.6818 42.0462 14.0994C42.2081 14.517 42.2891 15.0312 42.2891 15.642V16.0682H37.2436V15.1989H41.2663C41.2663 14.8295 41.1925 14.5 41.0447 14.2102C40.8999 13.9205 40.6925 13.6918 40.4226 13.5241C40.1555 13.3565 39.8402 13.2727 39.4766 13.2727C39.076 13.2727 38.7294 13.3722 38.4368 13.571C38.147 13.767 37.924 14.0227 37.7678 14.3381C37.6115 14.6534 37.5334 14.9915 37.5334 15.3523V15.9318C37.5334 16.4261 37.6186 16.8452 37.7891 17.1889C37.9624 17.5298 38.2024 17.7898 38.5092 17.9688C38.8161 18.1449 39.1726 18.233 39.5788 18.233C39.843 18.233 40.0817 18.196 40.2947 18.1222C40.5107 18.0455 40.6967 17.9318 40.853 17.7812C41.0092 17.6278 41.13 17.4375 41.2152 17.2102L42.1868 17.483C42.0845 17.8125 41.9126 18.1023 41.6712 18.3523C41.4297 18.5994 41.1314 18.7926 40.7763 18.9318C40.4212 19.0682 40.022 19.1364 39.5788 19.1364ZM46.478 19.1364C45.8871 19.1364 45.3686 18.9957 44.9226 18.7145C44.4794 18.4332 44.1328 18.0398 43.8828 17.5341C43.6357 17.0284 43.5121 16.4375 43.5121 15.7614C43.5121 15.0795 43.6357 14.4844 43.8828 13.9759C44.1328 13.4673 44.4794 13.0724 44.9226 12.7912C45.3686 12.5099 45.8871 12.3693 46.478 12.3693C47.0689 12.3693 47.5859 12.5099 48.0291 12.7912C48.4751 13.0724 48.8217 13.4673 49.0689 13.9759C49.3189 14.4844 49.4439 15.0795 49.4439 15.7614C49.4439 16.4375 49.3189 17.0284 49.0689 17.5341C48.8217 18.0398 48.4751 18.4332 48.0291 18.7145C47.5859 18.9957 47.0689 19.1364 46.478 19.1364ZM46.478 18.233C46.9268 18.233 47.2962 18.1179 47.5859 17.8878C47.8757 17.6577 48.0902 17.3551 48.2294 16.9801C48.3686 16.6051 48.4382 16.1989 48.4382 15.7614C48.4382 15.3239 48.3686 14.9162 48.2294 14.5384C48.0902 14.1605 47.8757 13.8551 47.5859 13.6222C47.2962 13.3892 46.9268 13.2727 46.478 13.2727C46.0291 13.2727 45.6598 13.3892 45.37 13.6222C45.0803 13.8551 44.8658 14.1605 44.7266 14.5384C44.5874 14.9162 44.5178 15.3239 44.5178 15.7614C44.5178 16.1989 44.5874 16.6051 44.7266 16.9801C44.8658 17.3551 45.0803 17.6577 45.37 17.8878C45.6598 18.1179 46.0291 18.233 46.478 18.233ZM55.104 16.3239V12.4545H56.1097V19H55.104V17.892H55.0359C54.8825 18.2244 54.6438 18.5071 54.32 18.7401C53.9961 18.9702 53.587 19.0852 53.0927 19.0852C52.6836 19.0852 52.32 18.9957 52.0018 18.8168C51.6836 18.6349 51.4336 18.3622 51.2518 17.9986C51.07 17.6321 50.979 17.1705 50.979 16.6136V12.4545H51.9847V16.5455C51.9847 17.0227 52.1183 17.4034 52.3853 17.6875C52.6552 17.9716 52.9989 18.1136 53.4165 18.1136C53.6665 18.1136 53.9208 18.0497 54.1793 17.9219C54.4407 17.794 54.6594 17.598 54.8356 17.3338C55.0146 17.0696 55.104 16.733 55.104 16.3239ZM60.7983 12.4545V13.3068H57.4062V12.4545H60.7983ZM58.3949 10.8864H59.4006V17.125C59.4006 17.4091 59.4418 17.6222 59.5241 17.7642C59.6094 17.9034 59.7173 17.9972 59.848 18.0455C59.9815 18.0909 60.1222 18.1136 60.2699 18.1136C60.3807 18.1136 60.4716 18.108 60.5426 18.0966C60.6136 18.0824 60.6705 18.071 60.7131 18.0625L60.9176 18.9659C60.8494 18.9915 60.7543 19.017 60.6321 19.0426C60.5099 19.071 60.3551 19.0852 60.1676 19.0852C59.8835 19.0852 59.6051 19.0241 59.3324 18.902C59.0625 18.7798 58.8381 18.5938 58.6591 18.3438C58.483 18.0938 58.3949 17.7784 58.3949 17.3977V10.8864Z" fill="white"/>
<rect x="33" y="31" width="145" height="47" rx="3" fill="#18191C"/>
<path d="M51.5337 62.6364H52.1388L53.349 64.6733H53.4002L54.6104 62.6364H55.2155L53.6388 65.2017V67H53.1104V65.2017L51.5337 62.6364ZM56.6974 67.0682C56.4019 67.0682 56.1427 66.9979 55.9197 66.8572C55.6981 66.7166 55.5248 66.5199 55.3998 66.267C55.2762 66.0142 55.2144 65.7187 55.2144 65.3807C55.2144 65.0398 55.2762 64.7422 55.3998 64.4879C55.5248 64.2337 55.6981 64.0362 55.9197 63.8956C56.1427 63.755 56.4019 63.6847 56.6974 63.6847C56.9929 63.6847 57.2514 63.755 57.473 63.8956C57.696 64.0362 57.8693 64.2337 57.9929 64.4879C58.1179 64.7422 58.1804 65.0398 58.1804 65.3807C58.1804 65.7187 58.1179 66.0142 57.9929 66.267C57.8693 66.5199 57.696 66.7166 57.473 66.8572C57.2514 66.9979 56.9929 67.0682 56.6974 67.0682ZM56.6974 66.6165C56.9218 66.6165 57.1065 66.5589 57.2514 66.4439C57.3963 66.3288 57.5035 66.1776 57.5731 65.9901C57.6427 65.8026 57.6775 65.5994 57.6775 65.3807C57.6775 65.1619 57.6427 64.9581 57.5731 64.7692C57.5035 64.5803 57.3963 64.4276 57.2514 64.3111C57.1065 64.1946 56.9218 64.1364 56.6974 64.1364C56.473 64.1364 56.2883 64.1946 56.1434 64.3111C55.9985 64.4276 55.8913 64.5803 55.8217 64.7692C55.7521 64.9581 55.7173 65.1619 55.7173 65.3807C55.7173 65.5994 55.7521 65.8026 55.8217 65.9901C55.8913 66.1776 55.9985 66.3288 56.1434 66.4439C56.2883 66.5589 56.473 66.6165 56.6974 66.6165ZM61.0104 65.6619V63.7273H61.5133V67H61.0104V66.446H60.9763C60.8996 66.6122 60.7803 66.7536 60.6184 66.87C60.4565 66.9851 60.2519 67.0426 60.0047 67.0426C59.8002 67.0426 59.6184 66.9979 59.4593 66.9084C59.3002 66.8175 59.1752 66.6811 59.0843 66.4993C58.9934 66.3161 58.9479 66.0852 58.9479 65.8068V63.7273H59.4508V65.7727C59.4508 66.0114 59.5175 66.2017 59.6511 66.3438C59.786 66.4858 59.9579 66.5568 60.1667 66.5568C60.2917 66.5568 60.4188 66.5249 60.5481 66.4609C60.6788 66.397 60.7881 66.299 60.8762 66.1669C60.9657 66.0348 61.0104 65.8665 61.0104 65.6619ZM64.1218 67V63.7273H64.6076V64.2216H64.6416C64.7013 64.0597 64.8093 63.9283 64.9655 63.8274C65.1218 63.7266 65.2979 63.6761 65.4939 63.6761C65.5308 63.6761 65.577 63.6768 65.6324 63.6783C65.6878 63.6797 65.7297 63.6818 65.7581 63.6847V64.196C65.7411 64.1918 65.702 64.1854 65.6409 64.1768C65.5813 64.1669 65.5181 64.1619 65.4513 64.1619C65.2922 64.1619 65.1502 64.1953 65.0252 64.2621C64.9016 64.3274 64.8036 64.4183 64.7311 64.5348C64.6601 64.6499 64.6246 64.7812 64.6246 64.929V67H64.1218ZM67.6267 67.0682C67.3114 67.0682 67.0394 66.9986 66.8107 66.8594C66.5834 66.7188 66.408 66.5227 66.2844 66.2713C66.1622 66.0185 66.1012 65.7244 66.1012 65.3892C66.1012 65.054 66.1622 64.7585 66.2844 64.5028C66.408 64.2457 66.5799 64.0455 66.8 63.902C67.0216 63.7571 67.2801 63.6847 67.5756 63.6847C67.746 63.6847 67.9144 63.7131 68.0806 63.7699C68.2468 63.8267 68.398 63.919 68.5344 64.0469C68.6708 64.1733 68.7794 64.3409 68.8604 64.5497C68.9414 64.7585 68.9818 65.0156 68.9818 65.321V65.5341H66.4591V65.0994H68.4705C68.4705 64.9148 68.4335 64.75 68.3597 64.6051C68.2872 64.4602 68.1835 64.3459 68.0486 64.2621C67.9151 64.1783 67.7574 64.1364 67.5756 64.1364C67.3753 64.1364 67.202 64.1861 67.0557 64.2855C66.9108 64.3835 66.7993 64.5114 66.7212 64.669C66.6431 64.8267 66.604 64.9957 66.604 65.1761V65.4659C66.604 65.7131 66.6466 65.9226 66.7318 66.0945C66.8185 66.2649 66.9385 66.3949 67.0919 66.4844C67.2453 66.5724 67.4236 66.6165 67.6267 66.6165C67.7588 66.6165 67.8782 66.598 67.9847 66.5611C68.0926 66.5227 68.1857 66.4659 68.2638 66.3906C68.3419 66.3139 68.4023 66.2187 68.4449 66.1051L68.9307 66.2415C68.8796 66.4062 68.7936 66.5511 68.6729 66.6761C68.5522 66.7997 68.403 66.8963 68.2255 66.9659C68.0479 67.0341 67.8483 67.0682 67.6267 67.0682ZM71.0763 67.0682C70.7695 67.0682 70.5053 66.9957 70.2837 66.8509C70.0621 66.706 69.8916 66.5064 69.7723 66.2521C69.653 65.9979 69.5933 65.7074 69.5933 65.3807C69.5933 65.0483 69.6544 64.755 69.7766 64.5007C69.9002 64.245 70.072 64.0455 70.2922 63.902C70.5138 63.7571 70.7723 63.6847 71.0678 63.6847C71.2979 63.6847 71.5053 63.7273 71.6899 63.8125C71.8746 63.8977 72.0259 64.017 72.1438 64.1705C72.2617 64.3239 72.3348 64.5028 72.3632 64.7074H71.8604C71.822 64.5582 71.7368 64.4261 71.6047 64.3111C71.474 64.1946 71.2979 64.1364 71.0763 64.1364C70.8803 64.1364 70.7084 64.1875 70.5607 64.2898C70.4144 64.3906 70.3 64.5334 70.2176 64.718C70.1367 64.9013 70.0962 65.1165 70.0962 65.3636C70.0962 65.6165 70.136 65.8366 70.2155 66.0241C70.2965 66.2116 70.4101 66.3572 70.5564 66.4609C70.7041 66.5646 70.8774 66.6165 71.0763 66.6165C71.207 66.6165 71.3256 66.5938 71.4321 66.5483C71.5387 66.5028 71.6289 66.4375 71.7027 66.3523C71.7766 66.267 71.8291 66.1648 71.8604 66.0455H72.3632C72.3348 66.2386 72.2645 66.4126 72.1523 66.5675C72.0415 66.7209 71.8945 66.843 71.7112 66.9339C71.5294 67.0234 71.3178 67.0682 71.0763 67.0682ZM73.0983 67V63.7273H73.6012V67H73.0983ZM73.354 63.1818C73.256 63.1818 73.1715 63.1484 73.1005 63.0817C73.0308 63.0149 72.996 62.9347 72.996 62.8409C72.996 62.7472 73.0308 62.6669 73.1005 62.6001C73.1715 62.5334 73.256 62.5 73.354 62.5C73.452 62.5 73.5358 62.5334 73.6054 62.6001C73.6764 62.6669 73.712 62.7472 73.712 62.8409C73.712 62.9347 73.6764 63.0149 73.6054 63.0817C73.5358 63.1484 73.452 63.1818 73.354 63.1818ZM77.1983 63.7273L75.9881 67H75.4767L74.2665 63.7273H74.8119L75.7153 66.3352H75.7494L76.6528 63.7273H77.1983ZM79.117 67.0682C78.8016 67.0682 78.5296 66.9986 78.3009 66.8594C78.0736 66.7188 77.8982 66.5227 77.7746 66.2713C77.6525 66.0185 77.5914 65.7244 77.5914 65.3892C77.5914 65.054 77.6525 64.7585 77.7746 64.5028C77.8982 64.2457 78.0701 64.0455 78.2903 63.902C78.5119 63.7571 78.7704 63.6847 79.0658 63.6847C79.2363 63.6847 79.4046 63.7131 79.5708 63.7699C79.737 63.8267 79.8883 63.919 80.0246 64.0469C80.161 64.1733 80.2697 64.3409 80.3506 64.5497C80.4316 64.7585 80.4721 65.0156 80.4721 65.321V65.5341H77.9494V65.0994H79.9607C79.9607 64.9148 79.9238 64.75 79.8499 64.6051C79.7775 64.4602 79.6738 64.3459 79.5388 64.2621C79.4053 64.1783 79.2476 64.1364 79.0658 64.1364C78.8655 64.1364 78.6922 64.1861 78.5459 64.2855C78.4011 64.3835 78.2895 64.5114 78.2114 64.669C78.1333 64.8267 78.0942 64.9957 78.0942 65.1761V65.4659C78.0942 65.7131 78.1369 65.9226 78.2221 66.0945C78.3087 66.2649 78.4288 66.3949 78.5822 66.4844C78.7356 66.5724 78.9138 66.6165 79.117 66.6165C79.2491 66.6165 79.3684 66.598 79.4749 66.5611C79.5829 66.5227 79.6759 66.4659 79.754 66.3906C79.8322 66.3139 79.8925 66.2187 79.9351 66.1051L80.4209 66.2415C80.3698 66.4062 80.2839 66.5511 80.1631 66.6761C80.0424 66.7997 79.8932 66.8963 79.7157 66.9659C79.5381 67.0341 79.3386 67.0682 79.117 67.0682ZM82.4728 67.0682C82.2001 67.0682 81.9593 66.9993 81.7505 66.8615C81.5417 66.7223 81.3783 66.5263 81.2604 66.2734C81.1425 66.0192 81.0836 65.7188 81.0836 65.3722C81.0836 65.0284 81.1425 64.7301 81.2604 64.4773C81.3783 64.2244 81.5424 64.0291 81.7526 63.8913C81.9628 63.7536 82.2057 63.6847 82.4813 63.6847C82.6944 63.6847 82.8627 63.7202 82.9863 63.7912C83.1113 63.8608 83.2065 63.9403 83.2718 64.0298C83.3386 64.1179 83.3904 64.1903 83.4273 64.2472H83.4699V62.6364H83.9728V67H83.487V66.4972H83.4273C83.3904 66.5568 83.3378 66.6321 83.2697 66.723C83.2015 66.8125 83.1042 66.8928 82.9778 66.9638C82.8513 67.0334 82.683 67.0682 82.4728 67.0682ZM82.541 66.6165C82.7427 66.6165 82.9131 66.5639 83.0523 66.4588C83.1915 66.3523 83.2974 66.2053 83.3698 66.0178C83.4422 65.8288 83.4785 65.6108 83.4785 65.3636C83.4785 65.1193 83.443 64.9055 83.3719 64.7223C83.3009 64.5376 83.1958 64.3942 83.0566 64.2919C82.9174 64.1882 82.7455 64.1364 82.541 64.1364C82.3279 64.1364 82.1503 64.1911 82.0083 64.3004C81.8677 64.4084 81.7619 64.5554 81.6908 64.7415C81.6212 64.9261 81.5864 65.1335 81.5864 65.3636C81.5864 65.5966 81.6219 65.8082 81.693 65.9986C81.7654 66.1875 81.8719 66.3381 82.0126 66.4503C82.1546 66.5611 82.3307 66.6165 82.541 66.6165ZM87.6141 67.0767C87.4067 67.0767 87.2185 67.0376 87.0495 66.9595C86.8805 66.88 86.7462 66.7656 86.6468 66.6165C86.5474 66.4659 86.4976 66.2841 86.4976 66.071C86.4976 65.8835 86.5346 65.7315 86.6084 65.6151C86.6823 65.4972 86.781 65.4048 86.9046 65.3381C87.0282 65.2713 87.1645 65.2216 87.3137 65.1889C87.4643 65.1548 87.6155 65.1278 87.7675 65.108C87.9664 65.0824 88.1276 65.0632 88.2512 65.0504C88.3762 65.0362 88.4671 65.0128 88.5239 64.9801C88.5822 64.9474 88.6113 64.8906 88.6113 64.8097V64.7926C88.6113 64.5824 88.5538 64.419 88.4387 64.3026C88.3251 64.1861 88.1525 64.1278 87.9209 64.1278C87.6809 64.1278 87.4927 64.1804 87.3563 64.2855C87.2199 64.3906 87.1241 64.5028 87.0687 64.6222L86.5914 64.4517C86.6766 64.2528 86.7903 64.098 86.9323 63.9872C87.0758 63.875 87.232 63.7969 87.4011 63.7528C87.5715 63.7074 87.7391 63.6847 87.9039 63.6847C88.009 63.6847 88.1297 63.6974 88.2661 63.723C88.4039 63.7472 88.5367 63.7976 88.6645 63.8743C88.7938 63.951 88.9011 64.0668 88.9863 64.2216C89.0715 64.3764 89.1141 64.5838 89.1141 64.8438V67H88.6113V66.5568H88.5857C88.5516 66.6278 88.4948 66.7038 88.4153 66.7848C88.3357 66.8658 88.2299 66.9347 88.0978 66.9915C87.9657 67.0483 87.8045 67.0767 87.6141 67.0767ZM87.6908 66.625C87.8897 66.625 88.0573 66.5859 88.1937 66.5078C88.3315 66.4297 88.4351 66.3288 88.5047 66.2053C88.5758 66.0817 88.6113 65.9517 88.6113 65.8153V65.3551C88.59 65.3807 88.5431 65.4041 88.4707 65.4254C88.3996 65.4453 88.3172 65.4631 88.2235 65.4787C88.1312 65.4929 88.041 65.5057 87.9529 65.517C87.8663 65.527 87.7959 65.5355 87.742 65.5426C87.6113 65.5597 87.4891 65.5874 87.3755 65.6257C87.2633 65.6626 87.1724 65.7187 87.1028 65.794C87.0346 65.8679 87.0005 65.9687 87.0005 66.0966C87.0005 66.2713 87.0651 66.4034 87.1944 66.4929C87.3251 66.581 87.4905 66.625 87.6908 66.625ZM93.1427 63.7273V64.1534H91.4467V63.7273H93.1427ZM91.941 62.9432H92.4438V66.0625C92.4438 66.2045 92.4644 66.3111 92.5056 66.3821C92.5483 66.4517 92.6022 66.4986 92.6676 66.5227C92.7343 66.5455 92.8046 66.5568 92.8785 66.5568C92.9339 66.5568 92.9794 66.554 93.0149 66.5483C93.0504 66.5412 93.0788 66.5355 93.1001 66.5312L93.2024 66.983C93.1683 66.9957 93.1207 67.0085 93.0596 67.0213C92.9985 67.0355 92.9211 67.0426 92.8274 67.0426C92.6853 67.0426 92.5461 67.0121 92.4098 66.951C92.2748 66.8899 92.1626 66.7969 92.0731 66.6719C91.985 66.5469 91.941 66.3892 91.941 66.1989V62.9432ZM93.8991 67V63.7273H94.4019V67H93.8991ZM94.1548 63.1818C94.0568 63.1818 93.9723 63.1484 93.9012 63.0817C93.8316 63.0149 93.7968 62.9347 93.7968 62.8409C93.7968 62.7472 93.8316 62.6669 93.9012 62.6001C93.9723 62.5334 94.0568 62.5 94.1548 62.5C94.2528 62.5 94.3366 62.5334 94.4062 62.6001C94.4772 62.6669 94.5127 62.7472 94.5127 62.8409C94.5127 62.9347 94.4772 63.0149 94.4062 63.0817C94.3366 63.1484 94.2528 63.1818 94.1548 63.1818ZM95.3229 67V63.7273H95.8087V64.2386H95.8513C95.9195 64.0639 96.0296 63.9283 96.1816 63.8317C96.3336 63.7337 96.5161 63.6847 96.7292 63.6847C96.9451 63.6847 97.1248 63.7337 97.2682 63.8317C97.4131 63.9283 97.5261 64.0639 97.607 64.2386H97.6411C97.7249 64.0696 97.8506 63.9354 98.0182 63.8359C98.1859 63.7351 98.3869 63.6847 98.6212 63.6847C98.9138 63.6847 99.1532 63.7763 99.3393 63.9595C99.5253 64.1413 99.6184 64.4247 99.6184 64.8097V67H99.1155V64.8097C99.1155 64.5682 99.0495 64.3956 98.9174 64.2919C98.7853 64.1882 98.6297 64.1364 98.4508 64.1364C98.2207 64.1364 98.0424 64.206 97.916 64.3452C97.7896 64.483 97.7263 64.6577 97.7263 64.8693V67H97.215V64.7585C97.215 64.5724 97.1546 64.4226 97.0339 64.3089C96.9131 64.1939 96.7576 64.1364 96.5672 64.1364C96.4366 64.1364 96.3144 64.1712 96.2008 64.2408C96.0886 64.3104 95.9976 64.407 95.928 64.5305C95.8599 64.6527 95.8258 64.794 95.8258 64.9545V67H95.3229ZM101.91 67.0682C101.595 67.0682 101.323 66.9986 101.094 66.8594C100.867 66.7188 100.691 66.5227 100.568 66.2713C100.445 66.0185 100.384 65.7244 100.384 65.3892C100.384 65.054 100.445 64.7585 100.568 64.5028C100.691 64.2457 100.863 64.0455 101.083 63.902C101.305 63.7571 101.563 63.6847 101.859 63.6847C102.029 63.6847 102.198 63.7131 102.364 63.7699C102.53 63.8267 102.681 63.919 102.818 64.0469C102.954 64.1733 103.063 64.3409 103.144 64.5497C103.225 64.7585 103.265 65.0156 103.265 65.321V65.5341H100.742V65.0994H102.754C102.754 64.9148 102.717 64.75 102.643 64.6051C102.57 64.4602 102.467 64.3459 102.332 64.2621C102.198 64.1783 102.041 64.1364 101.859 64.1364C101.659 64.1364 101.485 64.1861 101.339 64.2855C101.194 64.3835 101.083 64.5114 101.004 64.669C100.926 64.8267 100.887 64.9957 100.887 65.1761V65.4659C100.887 65.7131 100.93 65.9226 101.015 66.0945C101.102 66.2649 101.222 66.3949 101.375 66.4844C101.529 66.5724 101.707 66.6165 101.91 66.6165C102.042 66.6165 102.161 66.598 102.268 66.5611C102.376 66.5227 102.469 66.4659 102.547 66.3906C102.625 66.3139 102.686 66.2187 102.728 66.1051L103.214 66.2415C103.163 66.4062 103.077 66.5511 102.956 66.6761C102.835 66.7997 102.686 66.8963 102.509 66.9659C102.331 67.0341 102.132 67.0682 101.91 67.0682ZM105.905 64.8949V65.3636H103.996V64.8949H105.905ZM108.119 67.0682C107.824 67.0682 107.565 66.9979 107.342 66.8572C107.12 66.7166 106.947 66.5199 106.822 66.267C106.698 66.0142 106.636 65.7187 106.636 65.3807C106.636 65.0398 106.698 64.7422 106.822 64.4879C106.947 64.2337 107.12 64.0362 107.342 63.8956C107.565 63.755 107.824 63.6847 108.119 63.6847C108.415 63.6847 108.673 63.755 108.895 63.8956C109.118 64.0362 109.291 64.2337 109.415 64.4879C109.54 64.7422 109.602 65.0398 109.602 65.3807C109.602 65.7187 109.54 66.0142 109.415 66.267C109.291 66.5199 109.118 66.7166 108.895 66.8572C108.673 66.9979 108.415 67.0682 108.119 67.0682ZM108.119 66.6165C108.344 66.6165 108.528 66.5589 108.673 66.4439C108.818 66.3288 108.925 66.1776 108.995 65.9901C109.065 65.8026 109.099 65.5994 109.099 65.3807C109.099 65.1619 109.065 64.9581 108.995 64.7692C108.925 64.5803 108.818 64.4276 108.673 64.3111C108.528 64.1946 108.344 64.1364 108.119 64.1364C107.895 64.1364 107.71 64.1946 107.565 64.3111C107.42 64.4276 107.313 64.5803 107.244 64.7692C107.174 64.9581 107.139 65.1619 107.139 65.3807C107.139 65.5994 107.174 65.8026 107.244 65.9901C107.313 66.1776 107.42 66.3288 107.565 66.4439C107.71 66.5589 107.895 66.6165 108.119 66.6165ZM112.432 65.6619V63.7273H112.935V67H112.432V66.446H112.398C112.322 66.6122 112.202 66.7536 112.04 66.87C111.878 66.9851 111.674 67.0426 111.427 67.0426C111.222 67.0426 111.04 66.9979 110.881 66.9084C110.722 66.8175 110.597 66.6811 110.506 66.4993C110.415 66.3161 110.37 66.0852 110.37 65.8068V63.7273H110.873V65.7727C110.873 66.0114 110.939 66.2017 111.073 66.3438C111.208 66.4858 111.38 66.5568 111.589 66.5568C111.714 66.5568 111.841 66.5249 111.97 66.4609C112.101 66.397 112.21 66.299 112.298 66.1669C112.388 66.0348 112.432 65.8665 112.432 65.6619ZM115.279 63.7273V64.1534H113.583V63.7273H115.279ZM114.078 62.9432H114.581V66.0625C114.581 66.2045 114.601 66.3111 114.642 66.3821C114.685 66.4517 114.739 66.4986 114.804 66.5227C114.871 66.5455 114.941 66.5568 115.015 66.5568C115.071 66.5568 115.116 66.554 115.152 66.5483C115.187 66.5412 115.216 66.5355 115.237 66.5312L115.339 66.983C115.305 66.9957 115.257 67.0085 115.196 67.0213C115.135 67.0355 115.058 67.0426 114.964 67.0426C114.822 67.0426 114.683 67.0121 114.546 66.951C114.412 66.8899 114.299 66.7969 114.21 66.6719C114.122 66.5469 114.078 66.3892 114.078 66.1989V62.9432ZM117.723 67V63.7273H118.226V67H117.723ZM117.979 63.1818C117.881 63.1818 117.796 63.1484 117.725 63.0817C117.656 63.0149 117.621 62.9347 117.621 62.8409C117.621 62.7472 117.656 62.6669 117.725 62.6001C117.796 62.5334 117.881 62.5 117.979 62.5C118.077 62.5 118.161 62.5334 118.23 62.6001C118.301 62.6669 118.337 62.7472 118.337 62.8409C118.337 62.9347 118.301 63.0149 118.23 63.0817C118.161 63.1484 118.077 63.1818 117.979 63.1818ZM119.65 65.0312V67H119.147V63.7273H119.633V64.2386H119.676C119.752 64.0724 119.869 63.9389 120.025 63.8381C120.181 63.7358 120.383 63.6847 120.63 63.6847C120.852 63.6847 121.046 63.7301 121.212 63.821C121.378 63.9105 121.507 64.0469 121.6 64.2301C121.692 64.4119 121.738 64.642 121.738 64.9205V67H121.235V64.9545C121.235 64.6974 121.168 64.4972 121.035 64.3537C120.901 64.2088 120.718 64.1364 120.485 64.1364C120.325 64.1364 120.181 64.1712 120.055 64.2408C119.93 64.3104 119.831 64.4119 119.759 64.5455C119.686 64.679 119.65 64.8409 119.65 65.0312ZM127.924 64H127.396C127.364 63.848 127.31 63.7145 127.231 63.5994C127.155 63.4844 127.061 63.3878 126.95 63.3097C126.841 63.2301 126.719 63.1705 126.586 63.1307C126.452 63.0909 126.313 63.071 126.168 63.071C125.904 63.071 125.665 63.1378 125.45 63.2713C125.237 63.4048 125.067 63.6016 124.941 63.8615C124.816 64.1214 124.754 64.4403 124.754 64.8182C124.754 65.196 124.816 65.5149 124.941 65.7749C125.067 66.0348 125.237 66.2315 125.45 66.3651C125.665 66.4986 125.904 66.5653 126.168 66.5653C126.313 66.5653 126.452 66.5455 126.586 66.5057C126.719 66.4659 126.841 66.407 126.95 66.3288C127.061 66.2493 127.155 66.152 127.231 66.0369C127.31 65.9205 127.364 65.7869 127.396 65.6364H127.924C127.884 65.8594 127.812 66.0589 127.707 66.2351C127.602 66.4112 127.471 66.5611 127.315 66.6847C127.158 66.8068 126.983 66.8999 126.788 66.9638C126.595 67.0277 126.388 67.0597 126.168 67.0597C125.796 67.0597 125.465 66.9688 125.175 66.7869C124.886 66.6051 124.658 66.3466 124.491 66.0114C124.325 65.6761 124.242 65.2784 124.242 64.8182C124.242 64.358 124.325 63.9602 124.491 63.625C124.658 63.2898 124.886 63.0312 125.175 62.8494C125.465 62.6676 125.796 62.5767 126.168 62.5767C126.388 62.5767 126.595 62.6087 126.788 62.6726C126.983 62.7365 127.158 62.8303 127.315 62.9538C127.471 63.076 127.602 63.2251 127.707 63.4013C127.812 63.576 127.884 63.7756 127.924 64ZM130.772 65.6619V63.7273H131.275V67H130.772V66.446H130.738C130.661 66.6122 130.542 66.7536 130.38 66.87C130.218 66.9851 130.014 67.0426 129.766 67.0426C129.562 67.0426 129.38 66.9979 129.221 66.9084C129.062 66.8175 128.937 66.6811 128.846 66.4993C128.755 66.3161 128.71 66.0852 128.71 65.8068V63.7273H129.212V65.7727C129.212 66.0114 129.279 66.2017 129.413 66.3438C129.548 66.4858 129.72 66.5568 129.928 66.5568C130.053 66.5568 130.181 66.5249 130.31 66.4609C130.44 66.397 130.55 66.299 130.638 66.1669C130.727 66.0348 130.772 65.8665 130.772 65.6619ZM134.514 64.4602L134.062 64.5881C134.034 64.5128 133.992 64.4396 133.937 64.3686C133.883 64.2962 133.809 64.2365 133.715 64.1896C133.621 64.1428 133.501 64.1193 133.355 64.1193C133.155 64.1193 132.988 64.1655 132.854 64.2578C132.722 64.3487 132.656 64.4645 132.656 64.6051C132.656 64.7301 132.702 64.8288 132.793 64.9013C132.883 64.9737 133.026 65.0341 133.219 65.0824L133.705 65.2017C133.997 65.2727 134.215 65.3814 134.359 65.5277C134.502 65.6726 134.574 65.8594 134.574 66.0881C134.574 66.2756 134.52 66.4432 134.412 66.5909C134.305 66.7386 134.156 66.8551 133.964 66.9403C133.773 67.0256 133.55 67.0682 133.295 67.0682C132.962 67.0682 132.685 66.9957 132.467 66.8509C132.248 66.706 132.109 66.4943 132.051 66.2159L132.528 66.0966C132.574 66.2727 132.66 66.4048 132.786 66.4929C132.914 66.581 133.081 66.625 133.287 66.625C133.521 66.625 133.707 66.5753 133.845 66.4759C133.984 66.375 134.054 66.2543 134.054 66.1136C134.054 66 134.014 65.9048 133.935 65.8281C133.855 65.75 133.733 65.6918 133.568 65.6534L133.023 65.5256C132.723 65.4545 132.503 65.3445 132.362 65.1953C132.223 65.0447 132.153 64.8565 132.153 64.6307C132.153 64.446 132.205 64.2827 132.309 64.1406C132.414 63.9986 132.557 63.8871 132.737 63.8061C132.919 63.7251 133.125 63.6847 133.355 63.6847C133.679 63.6847 133.933 63.7557 134.118 63.8977C134.304 64.0398 134.436 64.2273 134.514 64.4602ZM136.754 63.7273V64.1534H135.058V63.7273H136.754ZM135.552 62.9432H136.055V66.0625C136.055 66.2045 136.076 66.3111 136.117 66.3821C136.16 66.4517 136.214 66.4986 136.279 66.5227C136.346 66.5455 136.416 66.5568 136.49 66.5568C136.545 66.5568 136.591 66.554 136.626 66.5483C136.662 66.5412 136.69 66.5355 136.711 66.5312L136.814 66.983C136.78 66.9957 136.732 67.0085 136.671 67.0213C136.61 67.0355 136.532 67.0426 136.439 67.0426C136.297 67.0426 136.157 67.0121 136.021 66.951C135.886 66.8899 135.774 66.7969 135.684 66.6719C135.596 66.5469 135.552 66.3892 135.552 66.1989V62.9432ZM138.805 67.0682C138.509 67.0682 138.25 66.9979 138.027 66.8572C137.806 66.7166 137.632 66.5199 137.507 66.267C137.384 66.0142 137.322 65.7187 137.322 65.3807C137.322 65.0398 137.384 64.7422 137.507 64.4879C137.632 64.2337 137.806 64.0362 138.027 63.8956C138.25 63.755 138.509 63.6847 138.805 63.6847C139.1 63.6847 139.359 63.755 139.58 63.8956C139.803 64.0362 139.977 64.2337 140.1 64.4879C140.225 64.7422 140.288 65.0398 140.288 65.3807C140.288 65.7187 140.225 66.0142 140.1 66.267C139.977 66.5199 139.803 66.7166 139.58 66.8572C139.359 66.9979 139.1 67.0682 138.805 67.0682ZM138.805 66.6165C139.029 66.6165 139.214 66.5589 139.359 66.4439C139.504 66.3288 139.611 66.1776 139.681 65.9901C139.75 65.8026 139.785 65.5994 139.785 65.3807C139.785 65.1619 139.75 64.9581 139.681 64.7692C139.611 64.5803 139.504 64.4276 139.359 64.3111C139.214 64.1946 139.029 64.1364 138.805 64.1364C138.58 64.1364 138.396 64.1946 138.251 64.3111C138.106 64.4276 137.999 64.5803 137.929 64.7692C137.86 64.9581 137.825 65.1619 137.825 65.3807C137.825 65.5994 137.86 65.8026 137.929 65.9901C137.999 66.1776 138.106 66.3288 138.251 66.4439C138.396 66.5589 138.58 66.6165 138.805 66.6165ZM141.055 67V63.7273H141.541V64.2386H141.584C141.652 64.0639 141.762 63.9283 141.914 63.8317C142.066 63.7337 142.249 63.6847 142.462 63.6847C142.678 63.6847 142.857 63.7337 143.001 63.8317C143.146 63.9283 143.258 64.0639 143.339 64.2386H143.374C143.457 64.0696 143.583 63.9354 143.751 63.8359C143.918 63.7351 144.119 63.6847 144.354 63.6847C144.646 63.6847 144.886 63.7763 145.072 63.9595C145.258 64.1413 145.351 64.4247 145.351 64.8097V67H144.848V64.8097C144.848 64.5682 144.782 64.3956 144.65 64.2919C144.518 64.1882 144.362 64.1364 144.183 64.1364C143.953 64.1364 143.775 64.206 143.648 64.3452C143.522 64.483 143.459 64.6577 143.459 64.8693V67H142.947V64.7585C142.947 64.5724 142.887 64.4226 142.766 64.3089C142.646 64.1939 142.49 64.1364 142.3 64.1364C142.169 64.1364 142.047 64.1712 141.933 64.2408C141.821 64.3104 141.73 64.407 141.66 64.5305C141.592 64.6527 141.558 64.794 141.558 64.9545V67H141.055ZM150.412 63.7273C150.387 63.5114 150.283 63.3438 150.101 63.2244C149.919 63.1051 149.696 63.0455 149.432 63.0455C149.239 63.0455 149.07 63.0767 148.925 63.1392C148.782 63.2017 148.669 63.2876 148.588 63.397C148.509 63.5064 148.469 63.6307 148.469 63.7699C148.469 63.8864 148.497 63.9865 148.552 64.0703C148.609 64.1527 148.681 64.2216 148.769 64.277C148.858 64.331 148.95 64.3757 149.046 64.4112C149.143 64.4453 149.232 64.473 149.313 64.4943L149.756 64.6136C149.87 64.6435 149.996 64.6847 150.135 64.7372C150.276 64.7898 150.41 64.8615 150.538 64.9524C150.667 65.0419 150.774 65.157 150.858 65.2976C150.941 65.4382 150.983 65.6108 150.983 65.8153C150.983 66.0511 150.921 66.2642 150.798 66.4545C150.676 66.6449 150.497 66.7962 150.261 66.9084C150.027 67.0206 149.742 67.0767 149.407 67.0767C149.094 67.0767 148.823 67.0263 148.595 66.9254C148.367 66.8246 148.189 66.6839 148.058 66.5036C147.929 66.3232 147.855 66.1136 147.838 65.875H148.384C148.398 66.0398 148.453 66.1761 148.55 66.2841C148.648 66.3906 148.772 66.4702 148.921 66.5227C149.071 66.5739 149.233 66.5994 149.407 66.5994C149.608 66.5994 149.789 66.5668 149.95 66.5014C150.11 66.4347 150.238 66.3423 150.331 66.2244C150.425 66.1051 150.472 65.9659 150.472 65.8068C150.472 65.6619 150.431 65.544 150.35 65.4531C150.269 65.3622 150.163 65.2884 150.031 65.2315C149.899 65.1747 149.756 65.125 149.603 65.0824L149.066 64.929C148.725 64.831 148.455 64.6911 148.256 64.5092C148.057 64.3274 147.958 64.0895 147.958 63.7955C147.958 63.5511 148.024 63.3381 148.156 63.1562C148.289 62.973 148.468 62.831 148.693 62.7301C148.919 62.6278 149.171 62.5767 149.449 62.5767C149.73 62.5767 149.98 62.6271 150.199 62.728C150.418 62.8274 150.591 62.9638 150.719 63.1371C150.848 63.3104 150.917 63.5071 150.924 63.7273H150.412ZM153.846 65.6619V63.7273H154.349V67H153.846V66.446H153.812C153.736 66.6122 153.616 66.7536 153.454 66.87C153.292 66.9851 153.088 67.0426 152.841 67.0426C152.636 67.0426 152.454 66.9979 152.295 66.9084C152.136 66.8175 152.011 66.6811 151.92 66.4993C151.829 66.3161 151.784 66.0852 151.784 65.8068V63.7273H152.287V65.7727C152.287 66.0114 152.353 66.2017 152.487 66.3438C152.622 66.4858 152.794 66.5568 153.003 66.5568C153.128 66.5568 153.255 66.5249 153.384 66.4609C153.515 66.397 153.624 66.299 153.712 66.1669C153.802 66.0348 153.846 65.8665 153.846 65.6619ZM155.27 68.2273V63.7273H155.756V64.2472H155.816C155.853 64.1903 155.904 64.1179 155.969 64.0298C156.036 63.9403 156.131 63.8608 156.255 63.7912C156.38 63.7202 156.549 63.6847 156.762 63.6847C157.037 63.6847 157.28 63.7536 157.49 63.8913C157.701 64.0291 157.865 64.2244 157.983 64.4773C158.1 64.7301 158.159 65.0284 158.159 65.3722C158.159 65.7188 158.1 66.0192 157.983 66.2734C157.865 66.5263 157.701 66.7223 157.492 66.8615C157.284 66.9993 157.043 67.0682 156.77 67.0682C156.56 67.0682 156.392 67.0334 156.265 66.9638C156.139 66.8928 156.042 66.8125 155.973 66.723C155.905 66.6321 155.853 66.5568 155.816 66.4972H155.773V68.2273H155.27ZM155.765 65.3636C155.765 65.6108 155.801 65.8288 155.873 66.0178C155.946 66.2053 156.051 66.3523 156.191 66.4588C156.33 66.5639 156.5 66.6165 156.702 66.6165C156.912 66.6165 157.088 66.5611 157.228 66.4503C157.37 66.3381 157.477 66.1875 157.548 65.9986C157.62 65.8082 157.657 65.5966 157.657 65.3636C157.657 65.1335 157.621 64.9261 157.55 64.7415C157.48 64.5554 157.375 64.4084 157.233 64.3004C157.092 64.1911 156.915 64.1364 156.702 64.1364C156.497 64.1364 156.326 64.1882 156.186 64.2919C156.047 64.3942 155.942 64.5376 155.871 64.7223C155.8 64.9055 155.765 65.1193 155.765 65.3636ZM158.926 68.2273V63.7273H159.412V64.2472H159.472C159.509 64.1903 159.56 64.1179 159.625 64.0298C159.692 63.9403 159.787 63.8608 159.911 63.7912C160.036 63.7202 160.205 63.6847 160.418 63.6847C160.693 63.6847 160.936 63.7536 161.147 63.8913C161.357 64.0291 161.521 64.2244 161.639 64.4773C161.757 64.7301 161.816 65.0284 161.816 65.3722C161.816 65.7188 161.757 66.0192 161.639 66.2734C161.521 66.5263 161.358 66.7223 161.149 66.8615C160.94 66.9993 160.699 67.0682 160.426 67.0682C160.216 67.0682 160.048 67.0334 159.921 66.9638C159.795 66.8928 159.698 66.8125 159.63 66.723C159.561 66.6321 159.509 66.5568 159.472 66.4972H159.429V68.2273H158.926ZM159.421 65.3636C159.421 65.6108 159.457 65.8288 159.529 66.0178C159.602 66.2053 159.708 66.3523 159.847 66.4588C159.986 66.5639 160.157 66.6165 160.358 66.6165C160.568 66.6165 160.744 66.5611 160.885 66.4503C161.027 66.3381 161.133 66.1875 161.204 65.9986C161.277 65.8082 161.313 65.5966 161.313 65.3636C161.313 65.1335 161.277 64.9261 161.206 64.7415C161.137 64.5554 161.031 64.4084 160.889 64.3004C160.748 64.1911 160.571 64.1364 160.358 64.1364C160.154 64.1364 159.982 64.1882 159.843 64.2919C159.703 64.3942 159.598 64.5376 159.527 64.7223C159.456 64.9055 159.421 65.1193 159.421 65.3636ZM163.912 67.0682C163.617 67.0682 163.358 66.9979 163.135 66.8572C162.913 66.7166 162.74 66.5199 162.615 66.267C162.491 66.0142 162.429 65.7187 162.429 65.3807C162.429 65.0398 162.491 64.7422 162.615 64.4879C162.74 64.2337 162.913 64.0362 163.135 63.8956C163.358 63.755 163.617 63.6847 163.912 63.6847C164.208 63.6847 164.466 63.755 164.688 63.8956C164.911 64.0362 165.084 64.2337 165.208 64.4879C165.333 64.7422 165.395 65.0398 165.395 65.3807C165.395 65.7187 165.333 66.0142 165.208 66.267C165.084 66.5199 164.911 66.7166 164.688 66.8572C164.466 66.9979 164.208 67.0682 163.912 67.0682ZM163.912 66.6165C164.137 66.6165 164.321 66.5589 164.466 66.4439C164.611 66.3288 164.718 66.1776 164.788 65.9901C164.858 65.8026 164.892 65.5994 164.892 65.3807C164.892 65.1619 164.858 64.9581 164.788 64.7692C164.718 64.5803 164.611 64.4276 164.466 64.3111C164.321 64.1946 164.137 64.1364 163.912 64.1364C163.688 64.1364 163.503 64.1946 163.358 64.3111C163.213 64.4276 163.106 64.5803 163.037 64.7692C162.967 64.9581 162.932 65.1619 162.932 65.3807C162.932 65.5994 162.967 65.8026 163.037 65.9901C163.106 66.1776 163.213 66.3288 163.358 66.4439C163.503 66.5589 163.688 66.6165 163.912 66.6165ZM166.163 67V63.7273H166.649V64.2216H166.683C166.742 64.0597 166.85 63.9283 167.007 63.8274C167.163 63.7266 167.339 63.6761 167.535 63.6761C167.572 63.6761 167.618 63.6768 167.673 63.6783C167.729 63.6797 167.771 63.6818 167.799 63.6847V64.196C167.782 64.1918 167.743 64.1854 167.682 64.1768C167.622 64.1669 167.559 64.1619 167.492 64.1619C167.333 64.1619 167.191 64.1953 167.066 64.2621C166.943 64.3274 166.845 64.4183 166.772 64.5348C166.701 64.6499 166.666 64.7812 166.666 64.929V67H166.163ZM170.024 63.7273V64.1534H168.328V63.7273H170.024ZM168.822 62.9432H169.325V66.0625C169.325 66.2045 169.345 66.3111 169.386 66.3821C169.429 66.4517 169.483 66.4986 169.548 66.5227C169.615 66.5455 169.686 66.5568 169.759 66.5568C169.815 66.5568 169.86 66.554 169.896 66.5483C169.931 66.5412 169.96 66.5355 169.981 66.5312L170.083 66.983C170.049 66.9957 170.002 67.0085 169.94 67.0213C169.879 67.0355 169.802 67.0426 169.708 67.0426C169.566 67.0426 169.427 67.0121 169.291 66.951C169.156 66.8899 169.043 66.7969 168.954 66.6719C168.866 66.5469 168.822 66.3892 168.822 66.1989V62.9432Z" fill="white"/>
<rect x="38.1056" y="35" width="23.4859" height="23" rx="4" fill="#36393F"/>
<g clip-path="url(#clip0_1_20)">
<path d="M52.5939 50.528L49.1599 47.1745C49.07 47.0857 48.9988 46.9804 48.9505 46.8647C48.9023 46.749 48.8778 46.625 48.8785 46.5V40.8H50.8187V46.1105L53.9617 49.1885L52.5939 50.528Z" fill="#D44144"/>
<path d="M53.0596 38.9L57.6092 43.3555V49.6446L53.0596 54.1H46.6376L42.088 49.6446V43.3555L46.6376 38.9H53.0596ZM53.467 37H46.2302C45.9734 37.0035 45.7274 37.1019 45.5415 37.2755L40.4292 42.282C40.252 42.464 40.1515 42.705 40.1479 42.9565V50.0435C40.1515 50.295 40.252 50.5359 40.4292 50.7179L45.5415 55.7245C45.7274 55.8981 45.9734 55.9965 46.2302 56H53.467C53.7237 55.9965 53.9697 55.8981 54.1556 55.7245L59.268 50.7179C59.4452 50.5359 59.5457 50.295 59.5493 50.0435V42.9565C59.5457 42.705 59.4452 42.464 59.268 42.282L54.1556 37.2755C53.9697 37.1019 53.7237 37.0035 53.467 37Z" fill="#D44144"/>
</g>
<path d="M68.1956 43.598V42.2727H75.1586V43.598H72.4612V51H70.893V43.598H68.1956ZM76.4328 51V44.4545H77.9754V51H76.4328ZM77.2084 43.5256C76.964 43.5256 76.7538 43.4446 76.5777 43.2827C76.4015 43.1179 76.3135 42.9205 76.3135 42.6903C76.3135 42.4574 76.4015 42.2599 76.5777 42.098C76.7538 41.9332 76.964 41.8509 77.2084 41.8509C77.4555 41.8509 77.6658 41.9332 77.839 42.098C78.0152 42.2599 78.1033 42.4574 78.1033 42.6903C78.1033 42.9205 78.0152 43.1179 77.839 43.2827C77.6658 43.4446 77.4555 43.5256 77.2084 43.5256ZM79.5617 51V44.4545H81.0361V45.5668H81.1128C81.2492 45.1918 81.4751 44.8991 81.7904 44.6889C82.1057 44.4759 82.4822 44.3693 82.9197 44.3693C83.3628 44.3693 83.7364 44.4773 84.0404 44.6932C84.3472 44.9062 84.5631 45.1974 84.6881 45.5668H84.7563C84.9012 45.2031 85.1455 44.9134 85.4893 44.6974C85.8359 44.4787 86.2464 44.3693 86.7208 44.3693C87.3231 44.3693 87.8145 44.5597 88.1952 44.9403C88.5759 45.321 88.7662 45.8764 88.7662 46.6065V51H87.2194V46.8452C87.2194 46.4389 87.1114 46.142 86.8955 45.9545C86.6796 45.7642 86.4154 45.669 86.1029 45.669C85.7307 45.669 85.4395 45.7855 85.2293 46.0185C85.0219 46.2486 84.9182 46.5483 84.9182 46.9176V51H83.4055V46.7812C83.4055 46.4432 83.3032 46.1733 83.0986 45.9716C82.8969 45.7699 82.6327 45.669 82.306 45.669C82.0844 45.669 81.8827 45.7259 81.7009 45.8395C81.5191 45.9503 81.3742 46.108 81.2662 46.3125C81.1583 46.5142 81.1043 46.75 81.1043 47.0199V51H79.5617ZM93.229 51.1278C92.5727 51.1278 92.0059 50.9915 91.5287 50.7188C91.0542 50.4432 90.6892 50.054 90.4335 49.5511C90.1778 49.0455 90.05 48.4503 90.05 47.7656C90.05 47.0923 90.1778 46.5014 90.4335 45.9929C90.692 45.4815 91.0528 45.0838 91.5159 44.7997C91.979 44.5128 92.523 44.3693 93.148 44.3693C93.5514 44.3693 93.9321 44.4347 94.29 44.5653C94.6508 44.6932 94.969 44.892 95.2446 45.1619C95.523 45.4318 95.7417 45.7756 95.9008 46.1932C96.0599 46.608 96.1395 47.1023 96.1395 47.6761V48.1491H90.7744V47.1094H94.6608C94.6579 46.8139 94.594 46.5511 94.469 46.321C94.344 46.0881 94.1693 45.9048 93.9449 45.7713C93.7233 45.6378 93.4648 45.571 93.1693 45.571C92.854 45.571 92.577 45.6477 92.3383 45.8011C92.0997 45.9517 91.9136 46.1506 91.7801 46.3977C91.6494 46.642 91.5827 46.9105 91.5798 47.2031V48.1108C91.5798 48.4915 91.6494 48.8182 91.7886 49.0909C91.9278 49.3608 92.1224 49.5682 92.3724 49.7131C92.6224 49.8551 92.915 49.9261 93.2503 49.9261C93.4747 49.9261 93.6778 49.8949 93.8596 49.8324C94.0415 49.767 94.1991 49.6719 94.3327 49.5469C94.4662 49.4219 94.567 49.267 94.6352 49.0824L96.0756 49.2443C95.9846 49.625 95.8113 49.9574 95.5557 50.2415C95.3028 50.5227 94.979 50.7415 94.5841 50.8977C94.1892 51.0511 93.7375 51.1278 93.229 51.1278ZM99.8735 51.1151C99.3593 51.1151 98.8991 50.983 98.4928 50.7188C98.0866 50.4545 97.7655 50.071 97.5297 49.5682C97.2939 49.0653 97.176 48.4545 97.176 47.7358C97.176 47.0085 97.2954 46.3949 97.534 45.8949C97.7755 45.392 98.1008 45.0128 98.5099 44.7571C98.9189 44.4986 99.3749 44.3693 99.8778 44.3693C100.261 44.3693 100.577 44.4347 100.824 44.5653C101.071 44.6932 101.267 44.848 101.412 45.0298C101.557 45.2088 101.669 45.3778 101.748 45.5369H101.812V42.2727H103.359V51H101.842V49.9688H101.748C101.669 50.1278 101.554 50.2969 101.403 50.4759C101.253 50.652 101.054 50.8026 100.807 50.9276C100.56 51.0526 100.248 51.1151 99.8735 51.1151ZM100.304 49.8494C100.631 49.8494 100.909 49.7614 101.139 49.5852C101.369 49.4062 101.544 49.1577 101.663 48.8395C101.783 48.5213 101.842 48.1506 101.842 47.7273C101.842 47.304 101.783 46.9361 101.663 46.6236C101.547 46.3111 101.373 46.0682 101.143 45.8949C100.916 45.7216 100.636 45.6349 100.304 45.6349C99.9601 45.6349 99.6732 45.7244 99.4431 45.9034C99.213 46.0824 99.0397 46.3295 98.9232 46.6449C98.8067 46.9602 98.7485 47.321 98.7485 47.7273C98.7485 48.1364 98.8067 48.5014 98.9232 48.8224C99.0425 49.1406 99.2172 49.392 99.4474 49.5767C99.6803 49.7585 99.9658 49.8494 100.304 49.8494ZM110.835 51.1278C110.196 51.1278 109.642 50.9872 109.173 50.706C108.704 50.4247 108.34 50.0312 108.082 49.5256C107.826 49.0199 107.698 48.429 107.698 47.7528C107.698 47.0767 107.826 46.4844 108.082 45.9759C108.34 45.4673 108.704 45.0724 109.173 44.7912C109.642 44.5099 110.196 44.3693 110.835 44.3693C111.474 44.3693 112.028 44.5099 112.497 44.7912C112.965 45.0724 113.328 45.4673 113.583 45.9759C113.842 46.4844 113.971 47.0767 113.971 47.7528C113.971 48.429 113.842 49.0199 113.583 49.5256C113.328 50.0312 112.965 50.4247 112.497 50.706C112.028 50.9872 111.474 51.1278 110.835 51.1278ZM110.843 49.892C111.19 49.892 111.48 49.7969 111.713 49.6065C111.946 49.4134 112.119 49.1548 112.233 48.831C112.349 48.5071 112.407 48.1463 112.407 47.7486C112.407 47.348 112.349 46.9858 112.233 46.6619C112.119 46.3352 111.946 46.0753 111.713 45.8821C111.48 45.6889 111.19 45.5923 110.843 45.5923C110.488 45.5923 110.193 45.6889 109.957 45.8821C109.724 46.0753 109.549 46.3352 109.433 46.6619C109.319 46.9858 109.262 47.348 109.262 47.7486C109.262 48.1463 109.319 48.5071 109.433 48.831C109.549 49.1548 109.724 49.4134 109.957 49.6065C110.193 49.7969 110.488 49.892 110.843 49.892ZM119.452 48.2472V44.4545H120.995V51H119.499V49.8366H119.431C119.283 50.2031 119.04 50.5028 118.702 50.7358C118.367 50.9687 117.954 51.0852 117.462 51.0852C117.033 51.0852 116.654 50.9901 116.324 50.7997C115.998 50.6065 115.742 50.3267 115.557 49.9602C115.373 49.5909 115.28 49.1449 115.28 48.6222V44.4545H116.823V48.3835C116.823 48.7983 116.937 49.1278 117.164 49.3722C117.391 49.6165 117.69 49.7386 118.059 49.7386C118.286 49.7386 118.506 49.6832 118.719 49.5724C118.932 49.4616 119.107 49.2969 119.244 49.0781C119.383 48.8565 119.452 48.5795 119.452 48.2472ZM125.85 44.4545V45.6477H122.087V44.4545H125.85ZM123.016 42.8864H124.559V49.0312C124.559 49.2386 124.59 49.3977 124.652 49.5085C124.718 49.6165 124.803 49.6903 124.908 49.7301C125.013 49.7699 125.13 49.7898 125.257 49.7898C125.354 49.7898 125.442 49.7827 125.522 49.7685C125.604 49.7543 125.666 49.7415 125.709 49.7301L125.969 50.9361C125.887 50.9645 125.769 50.9957 125.615 51.0298C125.465 51.0639 125.28 51.0838 125.061 51.0895C124.675 51.1009 124.327 51.0426 124.017 50.9148C123.708 50.7841 123.462 50.5824 123.28 50.3097C123.101 50.0369 123.013 49.696 123.016 49.2869V42.8864Z" fill="white"/>
<defs>
<clipPath id="clip0_1_20">
<rect width="19.4014" height="19" fill="white" transform="translate(40.1479 37)"/>
</clipPath>
</defs>
</svg>
