<svg width="48" height="48" viewBox="0 0 48 48" fill="none" xmlns="http://www.w3.org/2000/svg" class="sc-bczRLJ eaQhKt sc-1bkdx8b-1 isUVS"><path d="M27.7417 39.0323C33.4017 32.6123 33.0652 23.0661 26.9901 17.7102C20.915 12.3543 11.4019 13.2169 5.74192 19.6369C0.081959 26.0568 0.418481 35.603 6.49356 40.959C12.5686 46.3149 22.0818 45.4523 27.7417 39.0323Z" fill="#3994FF" fill-opacity="0.24"></path><path d="M41.42 34.3028C48.5856 29.1501 49.4346 18.0757 43.3163 9.56755C37.1981 1.05937 26.4294 -1.66074 19.2639 3.49202C12.0984 8.64477 11.2494 19.7191 17.3676 28.2273C23.4859 36.7355 34.2545 39.4556 41.42 34.3028Z" fill="#3994FF" fill-opacity="0.24"></path><path d="M41.79 18.8101C41.7294 18.944 41.6526 19.07 41.5612 19.1851L26.8237 38.2295C26.4406 38.7297 25.9304 39.1182 25.3462 39.3545C25.2157 39.4087 25.0817 39.4538 24.945 39.4895C24.6806 39.5617 24.4088 39.6032 24.135 39.6132C23.9023 39.6229 23.6692 39.6091 23.4393 39.572C23.3338 39.5559 23.2293 39.534 23.1262 39.5063C22.3492 39.3164 21.6605 38.8665 21.1743 38.2313L6.44059 19.1945C6.34836 19.0759 6.27033 18.9469 6.20809 18.8101C6.0847 18.5402 6.02461 18.2456 6.03241 17.949C6.04021 17.6523 6.11569 17.3613 6.25309 17.0982L6.28872 17.0307L9.49309 11.4376C9.98172 10.5842 10.671 9.86275 11.5012 9.33572C11.6512 9.2401 11.8068 9.14822 11.9662 9.06947C12.8319 8.61865 13.7933 8.38264 14.7693 8.38135H33.27C33.6341 8.38118 33.9975 8.41444 34.3556 8.48072C35.0498 8.60566 35.7168 8.85125 36.3262 9.20635L36.5137 9.32447C36.9914 9.62552 37.4249 9.99153 37.8018 10.412C38.088 10.7361 38.3393 11.0892 38.5518 11.4657L41.7056 17.0345C41.7184 17.0545 41.7291 17.0759 41.7375 17.0982C41.877 17.3604 41.9543 17.6512 41.9634 17.948C41.9725 18.2449 41.9132 18.5399 41.79 18.8101V18.8101Z" fill="#5ACFF5"></path><path d="M41.79 18.81H6.20809C6.0847 18.5401 6.02461 18.2456 6.03241 17.9489C6.04021 17.6522 6.11569 17.3612 6.25309 17.0981H41.7487C41.8859 17.3614 41.961 17.6525 41.9682 17.9493C41.9753 18.246 41.9144 18.5405 41.79 18.81Z" fill="#B3EEFF"></path><path d="M24.937 39.4912C24.4486 39.6253 23.9371 39.6535 23.437 39.5737C23.3315 39.5576 23.2269 39.5357 23.1238 39.5081L15.1626 18.0731C15.3721 17.8624 15.6269 17.7022 15.9077 17.6048C16.1884 17.5073 16.4876 17.4751 16.7826 17.5106L24.2076 37.4999L24.937 39.4912Z" fill="#B3EEFF"></path><path d="M33.6579 16.9839L25.3479 39.3564C25.2161 39.4086 25.0815 39.4537 24.9448 39.4914C24.4564 39.6255 23.945 39.6536 23.4448 39.5739L24.2136 37.5114L32.0361 16.4289C32.3308 16.3923 32.63 16.4232 32.911 16.5194C33.192 16.6155 33.4474 16.7744 33.6579 16.9839Z" fill="#B3EEFF"></path><path d="M17.1712 17.73L17.1319 17.7563L15.9206 18.5063L15.5625 18.7257L14.8125 17.4544L14.6962 17.2669L14.3906 16.7607L10.4531 10.1982C10.7729 9.87181 11.129 9.58307 11.5144 9.33754C11.6644 9.24191 11.82 9.15004 11.9794 9.07129L16.0162 15.8063L16.2037 16.1138L16.9537 17.3775L17.16 17.7188L17.1712 17.73Z" fill="#B3EEFF"></path><path d="M25.693 8.38135L24.4236 9.7726L17.9586 16.8489L17.1655 17.7189L17.1318 17.7545L16.2036 18.7726L16.1999 18.7689L15.9205 18.5064L14.803 17.4545L14.6455 17.3082L14.6868 17.2614L14.9586 16.9632L16.0161 15.8064L16.0836 15.7314L22.798 8.38135H25.693Z" fill="#B3EEFF"></path><path d="M37.8055 10.4119L34.1811 16.4438L33.8774 16.9501L33.763 17.1376L32.9999 18.4163L32.6417 18.1875L31.4324 17.4375L31.3911 17.4113V17.4001L31.603 17.0625L32.353 15.7988L32.5405 15.4913L36.3242 9.2063C36.388 9.2438 36.4536 9.28317 36.5117 9.32442C36.9915 9.62497 37.4269 9.991 37.8055 10.4119V10.4119Z" fill="#B3EEFF"></path><path d="M33.9168 16.9951L33.7631 17.1413L32.6418 18.1951L32.3624 18.4576L32.3587 18.4613L31.4324 17.4432L31.3987 17.4076L30.6055 16.5376L24.4237 9.7726L23.1543 8.38135H26.0493L32.4768 15.4201L32.5462 15.4951L33.6037 16.652L33.8774 16.9501L33.9168 16.9951Z" fill="#B3EEFF"></path><path d="M41.7898 18.8101C41.7292 18.944 41.6524 19.07 41.561 19.1851L26.8235 38.2295C26.4404 38.7297 25.9302 39.1182 25.346 39.3545C25.2155 39.4087 25.0815 39.4538 24.9448 39.4895C24.6804 39.5617 24.4086 39.6032 24.1348 39.6132V8.38135H33.2698C33.6339 8.38118 33.9973 8.41444 34.3554 8.48072C35.0496 8.60566 35.7166 8.85125 36.326 9.20635L36.5135 9.32447C36.9912 9.62552 37.4247 9.99153 37.8016 10.412C38.0878 10.7361 38.3391 11.0892 38.5516 11.4657L41.7054 17.0345C41.7182 17.0545 41.7289 17.0759 41.7373 17.0982C41.8768 17.3604 41.9541 17.6512 41.9632 17.948C41.9723 18.2449 41.913 18.5399 41.7898 18.8101V18.8101Z" fill="black" fill-opacity="0.1"></path></svg>