<svg xmlns="http://www.w3.org/2000/svg"  viewBox="0 0 28 28" width="448px" height="448px"><path fill="#ffe577" d="m11.915 20.378c-.171.189-.402.295-.643.295s-.473-.106-.643-.295l-4.814-5.327c-.71-.786-.71-2.06 0-2.846.71-.786 1.959-1.782 2.67-.996l1.98 2.709c.355.393.931.393 1.286 0l7.863-7.751c.71-.786 1.862-.786 2.572 0 .71.786.71 2.06 0 2.846z"/><path d="m11 21.915c-.4 0-.777-.156-1.061-.439l-6-6.001c-.283-.283-.439-.659-.439-1.06 0-.4.156-.778.439-1.062l1.414-1.414c.584-.584 1.537-.584 2.121 0l3.526 3.526 9.525-9.525c.583-.584 1.534-.585 2.121 0l1.414 1.414c.284.282.44.66.44 1.061s-.156.777-.439 1.06l-12 12.001c-.284.282-.661.439-1.061.439zm.707-.793h.01zm-5.293-8.622c-.128 0-.256.049-.354.146l-1.414 1.414c-.094.095-.146.221-.146.355 0 .133.052.258.146.353l6 6.001c.189.189.518.189.707 0l12-12.001c.095-.095.146-.22.146-.353 0-.134-.052-.26-.146-.354l-1.414-1.414c-.195-.195-.512-.195-.707 0l-9.879 9.879c-.195.195-.512.195-.707 0l-3.879-3.879c-.097-.098-.225-.147-.353-.147z"/></svg>